<svg version="1.0" 
 {...Astro.props}
 xmlns="http://www.w3.org/2000/svg"
 width="1935.000000pt" height="813.000000pt" viewBox="0 0 1935.000000 813.000000"
 preserveAspectRatio="xMidYMid meet">

<g transform="translate(0.000000,813.000000) scale(0.100000,-0.100000)"
fill="#000000" stroke="none">
<path d="M3960 6484 c-340 -41 -667 -138 -975 -290 -1135 -559 -1791 -1772
-1640 -3029 152 -1265 1088 -2289 2336 -2559 353 -77 761 -86 1118 -25 1256
213 2233 1189 2446 2444 62 365 55 727 -20 1101 -90 444 -305 901 -595 1264
-105 131 -325 352 -450 451 -457 364 -970 578 -1545 644 -161 19 -516 18 -675
-1z m740 -58 c349 -53 598 -130 905 -281 716 -352 1259 -988 1499 -1755 146
-468 170 -997 65 -1488 -198 -934 -865 -1728 -1759 -2095 -633 -260 -1377
-284 -2032 -66 -308 103 -632 279 -900 490 -151 119 -386 360 -505 519 -329
439 -517 908 -579 1446 -21 176 -15 596 10 749 58 352 139 604 291 904 146
288 328 534 571 771 217 212 423 361 689 501 300 158 667 272 995 308 52 6
111 13 130 15 83 10 520 -3 620 -18z"/>
<path d="M4110 6269 c-238 -16 -536 -79 -766 -164 -247 -91 -558 -268 -774
-441 -109 -88 -316 -295 -404 -404 -176 -220 -354 -534 -445 -787 -172 -475
-210 -992 -110 -1492 146 -729 601 -1382 1241 -1780 729 -455 1648 -538 2448
-224 232 91 468 224 673 380 139 105 403 371 509 513 314 418 495 881 548
1404 16 151 7 512 -15 651 -97 609 -359 1129 -780 1550 -475 474 -1087 748
-1770 795 -165 11 -175 11 -355 -1z m405 -79 c824 -70 1552 -502 2012 -1194
94 -140 227 -405 282 -561 175 -493 203 -1032 80 -1536 -35 -146 -96 -331
-113 -341 -6 -4 -28 -8 -48 -8 -56 0 -351 -39 -458 -60 l-94 -19 -76 43 c-192
111 -406 206 -612 271 l-118 38 0 770 0 771 33 -30 c137 -128 329 -295 335
-292 5 2 26 22 47 46 l38 43 -24 23 c-13 13 -269 243 -569 511 -300 268 -562
504 -582 523 l-36 34 -588 -528 c-324 -291 -597 -537 -609 -546 -20 -17 -19
-17 27 -64 l47 -47 128 115 c70 64 152 137 181 163 l52 47 0 -770 0 -769 -117
-38 c-65 -20 -146 -50 -179 -65 l-62 -28 -132 39 c-166 49 -417 103 -575 124
-183 25 -165 14 -165 99 0 40 3 134 7 209 6 135 6 136 35 157 25 18 34 20 60
11 41 -15 88 8 115 55 18 33 25 36 66 38 58 2 94 28 127 91 28 55 39 156 21
206 -11 31 -9 34 35 76 25 24 57 68 70 97 30 66 48 195 34 246 -20 73 -85 127
-139 115 l-28 -6 -6 69 c-9 89 -23 130 -60 169 -34 36 -72 48 -108 34 -21 -7
-28 -5 -38 11 -10 17 -20 19 -51 15 -32 -4 -40 -2 -45 14 -3 10 -20 30 -36 44
-35 29 -83 33 -117 9 -21 -15 -25 -15 -43 1 -10 10 -40 20 -66 22 -62 6 -109
-24 -142 -90 -18 -36 -26 -45 -36 -37 -16 13 -60 -2 -74 -27 -8 -14 -12 -16
-22 -5 -7 6 -27 12 -44 12 -52 0 -95 -62 -95 -136 0 -34 0 -34 -45 -34 -54 0
-85 -25 -115 -93 -42 -95 -34 -210 21 -319 27 -56 28 -58 8 -58 -70 0 -114
-75 -114 -195 0 -83 23 -137 69 -167 25 -15 44 -18 92 -15 55 4 61 3 57 -13
-7 -25 25 -88 48 -95 11 -4 22 -19 26 -36 9 -48 46 -79 94 -79 34 0 47 6 76
35 l35 35 30 -25 c16 -14 42 -25 57 -25 25 0 29 -5 35 -37 3 -21 6 -103 6
-183 l0 -146 -357 1 -358 0 -12 55 c-40 173 -56 337 -57 560 0 236 10 347 49
540 68 337 201 658 390 940 117 175 199 275 344 420 552 552 1324 835 2096
770z m464 -1475 l361 -325 0 -778 0 -779 -137 29 c-76 15 -139 28 -140 28 -2
0 -3 180 -3 400 l0 400 -450 0 -450 0 0 -400 c0 -220 -1 -400 -2 -400 -9 0
-245 -51 -260 -56 -17 -5 -18 25 -18 775 l0 780 362 325 c200 180 366 326 369
326 3 0 169 -146 368 -325z m-2463 -137 l36 -32 20 27 c37 51 108 21 128 -55
l11 -40 23 21 c30 28 54 27 62 -4 7 -30 13 -30 53 -7 28 15 33 16 57 2 58 -32
84 -106 84 -235 0 -34 3 -64 6 -67 3 -3 16 5 29 18 33 33 58 30 98 -10 42 -41
49 -73 38 -168 -11 -98 -30 -138 -97 -208 -54 -57 -56 -60 -45 -91 20 -57 14
-140 -15 -197 -30 -61 -63 -82 -127 -82 -40 0 -45 -3 -60 -35 -9 -18 -27 -41
-41 -50 -23 -15 -27 -15 -57 0 -30 16 -33 16 -60 -4 l-29 -22 0 66 0 65 44 20
c24 12 54 32 66 46 13 13 34 24 47 24 35 0 75 24 111 65 36 40 47 73 38 110
-9 34 -20 31 -34 -8 -12 -35 -68 -95 -78 -85 -3 3 -1 23 5 45 21 74 8 174 -24
187 -22 8 -32 -15 -37 -85 -6 -70 -32 -140 -68 -177 -28 -29 -32 -25 -20 19
12 38 15 215 4 242 -3 9 -12 17 -20 17 -22 0 -34 -35 -34 -97 -1 -53 -2 -56
-15 -39 -8 11 -15 39 -15 62 0 52 -22 76 -48 50 -34 -34 -12 -135 41 -194 l22
-23 -20 -37 c-42 -77 -109 -75 -153 5 -18 32 -25 67 -31 147 -9 110 -14 126
-36 126 -38 0 -43 -166 -9 -290 7 -24 7 -25 -13 -7 -42 37 -75 116 -82 196 -5
69 -8 76 -28 79 -17 3 -26 -3 -33 -23 -13 -34 -13 -120 0 -164 5 -19 7 -37 5
-40 -9 -8 -63 50 -76 81 -6 16 -17 27 -23 25 -20 -7 -11 -82 13 -113 29 -38
89 -74 122 -74 15 0 36 -11 50 -26 13 -15 43 -35 67 -45 l42 -18 0 -81 c0 -66
-3 -82 -17 -87 -24 -10 -65 18 -76 52 -12 38 -11 37 -30 30 -8 -4 -18 -17 -21
-29 -23 -93 -124 -104 -151 -17 -4 14 -23 39 -41 57 -36 34 -40 47 -24 90 15
39 -2 53 -39 31 -42 -24 -112 -22 -140 4 -48 45 -63 128 -40 214 16 60 44 85
96 85 53 0 54 9 9 84 -73 122 -70 279 7 364 24 26 72 29 98 6 25 -23 54 -11
39 15 -5 11 -10 38 -10 61 0 86 59 138 100 89 l20 -24 20 25 c45 56 43 55 58
32 20 -30 40 -27 48 6 11 44 42 100 66 116 38 27 92 20 134 -16z m51 -780 c-3
-7 -5 -2 -5 12 0 14 2 19 5 13 2 -7 2 -19 0 -25z m241 -53 c-4 -40 -14 -78
-27 -100 -11 -20 -21 -39 -21 -42 0 -3 17 -3 38 0 25 5 32 3 22 -3 -8 -5 -25
-10 -37 -10 -11 0 -40 -16 -63 -35 -23 -19 -59 -40 -81 -46 l-39 -12 0 -181
c0 -100 -3 -238 -7 -308 l-6 -127 -66 6 c-36 3 -67 7 -68 8 -2 1 -6 137 -9
302 l-7 301 -38 11 c-21 6 -56 27 -79 46 -26 22 -53 35 -70 35 -16 0 -31 4
-34 9 -3 4 5 6 18 4 34 -7 39 9 16 58 -12 27 -19 64 -19 94 l1 50 9 -45 c24
-124 87 -207 176 -234 22 -7 22 -6 -7 56 -17 35 -30 77 -29 93 1 28 2 27 10
-9 13 -54 47 -112 76 -127 64 -34 141 5 165 83 9 32 9 41 -6 57 -17 19 -17 19
2 14 14 -3 22 1 26 14 3 10 4 -3 2 -28 -2 -25 -15 -72 -29 -103 l-26 -57 22 6
c80 23 159 131 173 235 9 72 18 61 12 -15z m-431 -27 c-3 -7 -5 -2 -5 12 0 14
2 19 5 13 2 -7 2 -19 0 -25z m2653 -444 c0 -348 -2 -386 -16 -380 -9 3 -20 6
-25 6 -5 0 -9 148 -9 360 l0 360 -362 -2 -363 -3 -3 -356 -2 -357 -25 -4 c-13
-3 -27 -3 -30 0 -3 3 -5 176 -5 384 l0 378 420 0 420 0 0 -386z m-435 -14 l0
-335 -125 -6 c-69 -4 -141 -8 -160 -10 l-35 -4 -3 335 c-1 184 0 341 3 348 3
10 41 12 162 10 l158 -3 0 -335z m365 -11 c0 -316 -2 -351 -16 -345 -9 3 -81
9 -160 13 l-144 6 0 339 0 338 160 0 160 0 0 -351z m-65 -374 c411 -41 793
-162 1150 -363 85 -49 88 -51 60 -57 -102 -23 -325 -93 -437 -136 -246 -97
-462 -220 -656 -377 l-103 -83 -86 81 c-213 202 -509 399 -828 551 -123 58
-343 149 -430 176 l-30 10 30 15 c44 23 232 87 269 92 53 7 340 66 356 73 24
11 283 30 430 31 74 1 198 -5 275 -13z m-2550 -5 c328 -20 574 -57 873 -131
606 -150 1196 -457 1596 -830 l77 -72 -64 -66 c-82 -84 -154 -173 -217 -267
-57 -84 -149 -256 -175 -327 l-18 -48 -58 116 c-134 268 -348 546 -585 759
-501 453 -1136 728 -1903 824 -176 22 -198 40 -54 45 224 7 367 6 528 -3z
m-464 -85 c460 -60 846 -176 1212 -363 525 -267 958 -683 1210 -1162 95 -180
93 -172 61 -295 l-27 -105 -36 1 c-64 1 -69 7 -111 129 -196 582 -675 1091
-1338 1424 -256 128 -601 252 -912 326 -96 24 -184 46 -195 51 -20 8 -20 8 1
8 11 1 72 -6 135 -14z m70 -89 c1009 -254 1734 -761 2091 -1462 55 -108 123
-277 135 -334 5 -30 5 -30 -39 -30 -66 0 -279 28 -387 51 -762 162 -1423 653
-1793 1333 -104 192 -222 486 -194 486 7 0 91 -20 187 -44z m4783 -253 c-339
-747 -1003 -1304 -1784 -1497 -176 -44 -307 -64 -463 -73 l-117 -6 6 34 c15
80 85 272 137 374 294 586 852 981 1636 1160 180 40 452 81 568 84 l52 1 -35
-77z"/>
<path d="M4557 4569 c-161 -38 -244 -212 -171 -357 81 -162 299 -190 416 -52
110 127 62 330 -93 394 -49 20 -108 26 -152 15z m137 -33 c90 -38 153 -139
143 -232 -21 -206 -265 -281 -400 -123 -101 117 -51 302 95 356 45 16 122 16
162 -1z"/>
<path d="M12809 5560 c-326 -41 -511 -208 -535 -483 -12 -141 41 -296 135
-399 100 -110 227 -179 501 -273 184 -63 244 -92 296 -143 122 -118 65 -285
-115 -339 -86 -26 -266 -24 -357 5 -40 12 -81 30 -92 39 -11 10 -41 80 -68
160 l-49 143 -117 0 c-65 0 -119 -1 -119 -2 -1 -2 -7 -121 -13 -265 l-11 -262
36 -20 36 -20 72 20 72 21 66 -27 c203 -81 477 -97 699 -39 138 35 278 128
339 224 62 98 90 259 65 382 -45 233 -217 382 -582 507 -296 101 -385 162
-404 278 -24 153 150 261 375 233 55 -8 142 -32 160 -46 2 -2 29 -74 60 -161
l58 -158 115 -3 115 -3 6 83 c4 46 10 167 13 270 l7 187 -37 18 c-35 16 -40
16 -106 -1 l-70 -18 -54 26 c-118 56 -343 86 -497 66z"/>
<path d="M8220 5459 l0 -80 82 -39 82 -38 217 -759 c119 -417 224 -784 233
-816 l17 -57 172 2 172 3 165 587 c91 323 168 589 171 592 3 3 82 -261 175
-587 l170 -592 172 -3 171 -2 20 67 c39 132 441 1552 441 1558 0 4 38 24 85
46 l86 39 -3 78 -3 77 -287 3 -288 2 0 -80 0 -81 84 -38 84 -39 -104 -409
c-58 -224 -121 -473 -141 -552 -26 -105 -39 -140 -44 -125 -8 18 -329 1278
-329 1289 0 3 -80 5 -177 5 l-178 0 -164 -643 c-90 -353 -167 -648 -171 -656
-4 -7 -68 233 -145 538 -76 304 -136 553 -134 555 2 2 39 20 82 39 l77 36 0
80 0 81 -395 0 -395 0 0 -81z"/>
<path d="M11140 5458 l0 -83 80 -37 80 -36 0 -700 0 -699 -80 -36 -80 -36 0
-80 0 -81 380 0 380 0 0 80 0 80 -80 36 -80 37 0 701 0 702 80 36 80 36 0 81
0 81 -380 0 -380 0 0 -82z"/>
<path d="M14010 5459 l0 -80 85 -40 85 -39 0 -696 0 -695 -85 -40 -85 -40 0
-79 0 -80 716 0 717 0 -7 148 c-3 81 -9 205 -13 275 l-6 128 -110 -3 -110 -3
-38 -115 c-22 -63 -46 -134 -55 -158 l-16 -42 -236 2 -237 3 -3 698 -2 698 85
40 86 39 -3 78 -3 77 -382 3 -383 2 0 -81z"/>
<path d="M15740 5459 l0 -81 80 -36 80 -36 0 -702 0 -701 -80 -37 -80 -38 0
-79 0 -79 380 0 380 0 0 81 0 81 -80 36 -80 36 0 699 0 699 80 36 80 36 0 83
0 83 -380 0 -380 0 0 -81z"/>
<path d="M16810 5460 l0 -81 85 -39 85 -39 0 -698 0 -698 -82 -37 -83 -37 -3
-80 -3 -81 281 0 280 0 0 81 0 81 -80 36 -80 36 0 506 c0 480 1 504 18 483 9
-12 222 -292 472 -622 l455 -601 118 0 117 0 0 818 0 817 80 35 80 34 0 83 0
83 -280 0 -280 0 0 -80 0 -81 85 -39 85 -39 0 -456 c0 -250 -2 -455 -4 -455
-2 0 -198 259 -436 575 l-433 575 -239 0 -238 0 0 -80z"/>
<path d="M8242 2599 l3 -82 75 -33 75 -33 3 -701 2 -701 -80 -36 -80 -36 0
-84 0 -83 405 0 405 0 0 83 0 83 -102 36 -103 35 -3 292 -2 291 139 0 138 0
45 -102 44 -103 72 -3 72 -3 0 331 0 331 -72 -3 -72 -3 -44 -102 -45 -103
-138 0 -139 0 0 290 0 290 262 -2 261 -3 52 -155 52 -155 110 -3 110 -3 7 158
c3 87 9 211 13 276 l6 117 -737 0 -737 0 3 -81z"/>
<path d="M10573 2663 c-4 -10 -138 -376 -298 -813 l-291 -795 -82 -40 -82 -39
0 -83 0 -83 285 0 285 0 0 84 0 83 -75 33 c-42 18 -78 36 -80 40 -2 3 13 53
34 111 l39 104 337 0 337 0 39 -104 c21 -57 37 -107 34 -111 -3 -4 -38 -22
-80 -41 l-75 -33 0 -83 0 -83 395 0 395 0 0 83 0 82 -83 38 -82 37 -300 813
-300 812 -173 3 c-157 2 -173 1 -179 -15z m197 -823 c66 -178 120 -325 120
-327 0 -2 -111 -3 -246 -3 -193 0 -245 3 -241 13 2 6 52 143 110 302 129 356
127 349 132 343 3 -2 59 -150 125 -328z"/>
<path d="M11982 2600 l3 -81 75 -34 75 -34 3 -701 2 -701 -80 -36 -80 -36 0
-84 0 -83 380 0 380 0 0 83 0 84 -80 36 -80 36 0 265 0 266 118 0 119 0 163
-372 c90 -205 168 -379 173 -385 7 -10 76 -13 283 -13 l274 0 0 83 0 83 -93
43 -93 42 -130 291 c-71 160 -130 293 -131 297 -2 3 23 20 55 38 170 93 265
282 249 493 -17 216 -133 362 -349 441 -149 55 -204 59 -745 59 l-494 0 3 -80z
m991 -183 c101 -50 155 -167 144 -312 -10 -131 -54 -214 -140 -261 -51 -28
-56 -29 -224 -32 l-173 -4 0 322 0 322 168 -4 c160 -3 170 -4 225 -31z"/>
<path d="M14030 2601 l0 -78 80 -36 80 -36 0 -701 0 -702 -80 -36 -80 -37 0
-82 0 -83 280 0 280 0 0 83 0 84 -80 36 -80 36 0 552 c0 304 2 550 4 548 2 -2
99 -238 216 -524 116 -286 216 -528 221 -537 9 -16 26 -18 148 -18 102 0 140
3 144 12 24 62 409 1011 421 1038 14 32 15 -14 16 -518 l0 -553 -80 -36 -80
-36 0 -84 0 -83 380 0 380 0 0 84 0 83 -80 36 -80 36 0 699 0 699 80 37 80 38
0 79 0 79 -319 0 -318 0 -216 -517 c-119 -285 -219 -517 -223 -516 -4 1 -85
190 -181 420 -95 230 -192 462 -214 516 l-41 97 -329 0 -329 0 0 -79z"/>
</g>
</svg>
