<svg version="1.1" id="Layer_1" xmlns="http://www.w3.org/2000/svg" xmlns:xlink="http://www.w3.org/1999/xlink" x="0px" y="0px"
	 width="100%" viewBox="0 0 1935 814" enable-background="new 0 0 1935 814" xml:space="preserve">
<path fill="#FFFFFF" opacity="1.000000" stroke="none" 
	d="
M1157.000000,815.000000 
	C771.333313,815.000000 386.166656,815.000000 1.000000,815.000000 
	C1.000000,543.666687 1.000000,272.333344 1.000000,1.000000 
	C646.000000,1.000000 1291.000000,1.000000 1936.000000,1.000000 
	C1936.000000,272.333344 1936.000000,543.666687 1936.000000,815.000000 
	C1676.500000,815.000000 1417.000000,815.000000 1157.000000,815.000000 
M1520.312744,699.879700 
	C1533.624146,667.070679 1546.935669,634.261597 1560.247070,601.452576 
	C1560.551514,601.543335 1560.855835,601.634094 1561.160278,601.724854 
	C1561.160278,603.534729 1561.160400,605.344543 1561.160400,607.154419 
	C1561.160400,636.646118 1560.602539,666.153992 1561.453369,695.621094 
	C1561.764404,706.396179 1559.632324,713.399841 1548.448975,715.704285 
	C1547.812500,715.835388 1547.079102,716.085266 1546.656006,716.531372 
	C1545.939209,717.287292 1544.952637,718.226929 1544.920776,719.119385 
	C1544.750244,723.887634 1544.840332,728.665161 1544.840332,733.518799 
	C1570.650024,733.518799 1595.862183,733.518799 1621.026367,733.518799 
	C1623.200317,718.384033 1623.107910,718.203796 1610.279297,712.215332 
	C1609.977905,712.074646 1609.675537,711.916382 1609.356201,711.836243 
	C1605.857422,710.958618 1605.072876,708.715332 1605.084106,705.222717 
	C1605.213867,665.234375 1605.640991,625.236084 1604.860474,585.262573 
	C1604.643555,574.158142 1606.644287,566.834045 1618.194946,564.342102 
	C1618.832275,564.204651 1619.560181,563.961304 1619.991455,563.518982 
	C1620.622192,562.872009 1621.431396,562.011780 1621.453735,561.222412 
	C1621.588501,556.454529 1621.520752,551.681030 1621.520752,546.463074 
	C1619.264160,546.463074 1617.631104,546.463074 1615.997925,546.463074 
	C1598.169556,546.463074 1580.339600,546.592468 1562.514282,546.361694 
	C1558.610718,546.311157 1556.699951,547.393799 1555.188232,551.093628 
	C1543.500366,579.699951 1531.582520,608.212280 1519.718506,636.746521 
	C1517.778198,641.413208 1515.752686,646.044556 1513.544189,651.212402 
	C1512.487427,648.737366 1511.690796,646.912415 1510.925781,645.074219 
	C1497.904907,613.784851 1484.822510,582.520630 1471.958252,551.166931 
	C1470.461426,547.518311 1468.678345,546.298279 1464.697998,546.352661 
	C1446.373291,546.603271 1428.043091,546.463074 1409.714966,546.463074 
	C1407.922241,546.463074 1406.129395,546.463074 1404.236084,546.463074 
	C1404.129028,547.798828 1404.143555,548.626770 1403.986816,549.420959 
	C1402.038208,559.295959 1405.173096,565.970825 1415.622437,568.176575 
	C1419.638184,569.024170 1420.263184,571.741333 1420.249512,575.553162 
	C1420.105103,615.541443 1419.689209,655.539612 1420.466919,695.513245 
	C1420.681396,706.540405 1418.301392,713.476501 1407.164673,715.984558 
	C1406.692261,716.091003 1406.147339,716.296021 1405.842407,716.638611 
	C1405.159790,717.405090 1404.114258,718.269836 1404.083740,719.125488 
	C1403.913574,723.897461 1404.001831,728.678772 1404.001831,733.466919 
	C1423.089722,733.466919 1441.618652,733.466919 1460.030273,733.466919 
	C1460.252930,732.785950 1460.425415,732.479736 1460.446045,732.163635 
	C1461.383301,717.791626 1461.437256,717.663208 1448.190186,711.933899 
	C1444.918823,710.519043 1443.904297,708.807068 1443.919067,705.304993 
	C1444.058716,672.148254 1444.002075,638.990601 1444.002075,605.833252 
	C1444.002075,604.435303 1444.002197,603.037292 1444.002197,601.639343 
	C1445.331055,602.607117 1445.845337,603.729858 1446.311646,604.872131 
	C1459.622925,637.477966 1473.012329,670.052551 1486.131470,702.735657 
	C1487.767334,706.810974 1489.750732,708.305176 1494.093262,707.940735 
	C1499.222412,707.510315 1504.465332,707.389648 1509.567383,707.956726 
	C1515.582397,708.625183 1519.013794,706.573364 1520.312744,699.879700 
M1021.039062,448.161835 
	C1022.319336,446.340515 1024.211548,444.694305 1024.790039,442.672241 
	C1038.459351,394.887482 1052.274536,347.140381 1065.311157,299.181976 
	C1068.095947,288.937408 1071.720703,281.134552 1082.799316,278.621521 
	C1083.996094,278.350037 1085.603882,276.530243 1085.692505,275.330505 
	C1086.032227,270.731293 1085.830078,266.092072 1085.830078,261.310883 
	C1066.324585,261.310883 1047.280884,261.310883 1028.357422,261.310883 
	C1028.182861,261.770447 1028.084229,261.915375 1028.077271,262.064545 
	C1027.392944,276.901276 1027.351929,276.994110 1040.748657,282.993591 
	C1043.797607,284.358978 1044.433228,285.778900 1043.579346,289.026581 
	C1038.802002,307.195282 1034.316406,325.440521 1029.684448,343.647736 
	C1025.427368,360.380981 1021.111389,377.099213 1016.462646,395.222626 
	C1005.083008,350.564484 994.055603,307.288666 983.077515,264.206116 
	C970.823242,264.206116 959.075195,264.206116 947.404602,264.206116 
	C936.249634,307.645264 925.188660,350.718658 914.127625,393.792053 
	C913.852600,393.737183 913.577576,393.682343 913.302551,393.627472 
	C904.186584,357.410461 895.070679,321.193420 885.919067,284.834717 
	C890.565247,282.708801 894.847778,280.899841 898.966370,278.773407 
	C900.210083,278.131256 901.776917,276.662689 901.859619,275.479309 
	C902.190674,270.741730 901.996338,265.967438 901.996338,261.347534 
	C875.289978,261.347534 849.225525,261.347534 823.114075,261.347534 
	C823.064514,262.350708 823.112610,263.023651 822.987610,263.662781 
	C820.968506,273.987244 824.565735,280.698853 835.234497,283.056854 
	C838.289429,283.732056 839.555115,285.918945 840.391113,288.996002 
	C844.441956,303.906128 848.803284,318.732025 853.062439,333.585510 
	C863.644714,370.490173 874.211670,407.399261 884.888672,444.276489 
	C885.308594,445.726776 886.768066,447.960541 887.788574,447.985718 
	C898.735352,448.255463 909.691284,448.153656 920.530457,448.153656 
	C931.760193,408.417542 942.816772,369.293884 953.873352,330.170227 
	C955.242310,331.982697 955.710938,333.573853 956.168396,335.168213 
	C966.435974,370.954376 976.813599,406.709869 986.832458,442.565552 
	C988.132446,447.218170 990.049500,448.487732 994.630310,448.277466 
	C1003.112061,447.888123 1011.624390,448.165771 1021.039062,448.161835 
M1293.856445,682.692139 
	C1300.736938,698.364746 1307.713501,713.996460 1314.419556,729.743347 
	C1315.822632,733.037964 1317.667480,734.003967 1321.115234,733.919983 
	C1330.774414,733.684814 1340.443237,733.838074 1350.108154,733.838074 
	C1357.395508,733.838074 1364.682861,733.838074 1371.871826,733.838074 
	C1374.526367,719.546143 1373.694702,717.882935 1361.432983,712.339172 
	C1360.373901,711.860352 1359.334717,711.304260 1358.230591,710.965088 
	C1354.798218,709.910889 1352.914795,707.613098 1351.482788,704.304749 
	C1344.218262,687.523010 1336.703247,670.849792 1329.297119,654.129150 
	C1328.652710,652.674438 1328.161255,651.151978 1327.610107,649.691223 
	C1328.567017,649.090210 1329.111328,648.717896 1329.684448,648.396851 
	C1330.263794,648.072266 1330.881836,647.817322 1331.465576,647.499939 
	C1350.416504,637.196533 1358.492310,620.848755 1358.075195,599.737610 
	C1357.662231,578.839111 1347.715820,564.130737 1329.120483,555.056519 
	C1314.680420,548.010132 1299.124756,546.591309 1283.402710,546.505371 
	C1256.908325,546.360535 1230.412354,546.461182 1203.917114,546.475647 
	C1202.168823,546.476562 1198.981323,546.491333 1198.961060,546.714722 
	C1197.539917,562.396545 1197.520752,562.489502 1211.045776,568.406616 
	C1214.049316,569.720581 1215.105225,571.255066 1215.093018,574.637085 
	C1214.947266,614.962708 1214.570679,655.296692 1215.286133,695.610168 
	C1215.476074,706.311523 1213.565674,713.412537 1202.356323,715.732910 
	C1201.718018,715.864990 1200.957642,716.083008 1200.554321,716.531128 
	C1199.751099,717.423645 1198.617432,718.479431 1198.569702,719.511658 
	C1198.356079,724.126343 1198.476929,728.756592 1198.476929,733.477112 
	C1224.409180,733.477112 1249.768555,733.477112 1275.079834,733.477112 
	C1277.021240,718.132324 1277.021362,718.131958 1263.659546,711.984497 
	C1263.357422,711.845520 1263.050293,711.705994 1262.731812,711.615295 
	C1259.921021,710.815735 1259.052979,709.075867 1259.087036,706.087585 
	C1259.258179,691.092224 1259.155884,676.093811 1259.183594,661.096558 
	C1259.185913,659.840637 1259.441040,658.585327 1259.596924,657.165527 
	C1266.328613,657.165527 1272.660400,657.328552 1278.977295,657.091614 
	C1281.815796,656.985168 1283.070679,658.067383 1284.104370,660.556274 
	C1287.099487,667.767517 1290.355469,674.870239 1293.856445,682.692139 
M1806.940186,280.512054 
	C1808.913696,281.397369 1810.829834,282.459412 1812.874756,283.125153 
	C1815.700806,284.045166 1816.548096,285.732697 1816.535522,288.700500 
	C1816.419678,316.033325 1816.473022,343.366882 1816.445435,370.700165 
	C1816.444214,371.858643 1816.130493,373.016785 1815.859863,374.880066 
	C1814.437744,373.104431 1813.579590,372.088379 1812.780884,371.027588 
	C1788.235596,338.432831 1763.286377,306.129425 1739.419556,273.045227 
	C1732.725464,263.765900 1726.013062,259.588837 1714.586670,260.765167 
	C1703.927979,261.862488 1693.067505,260.999664 1682.000122,260.999664 
	C1682.000122,262.528931 1682.163818,263.532837 1681.975098,264.465393 
	C1679.977173,274.336151 1683.677979,280.500061 1693.662109,282.660614 
	C1697.591553,283.510925 1698.582764,285.913055 1698.566406,289.892792 
	C1698.403198,329.558777 1697.970947,369.235840 1698.779541,408.885986 
	C1699.012573,420.314880 1697.140747,428.044128 1685.075195,430.591736 
	C1684.594482,430.693237 1683.989380,430.831238 1683.717651,431.171875 
	C1683.059937,431.996246 1682.114258,432.934387 1682.081177,433.855316 
	C1681.915039,438.475769 1682.004883,443.105438 1682.004883,447.868652 
	C1701.003540,447.868652 1719.557373,447.868652 1738.071045,447.868652 
	C1740.057495,432.694153 1740.057495,432.694214 1726.711182,426.463928 
	C1726.409912,426.323303 1726.126099,426.122040 1725.810425,426.039215 
	C1722.666626,425.214233 1722.083374,423.116425 1722.094727,420.057587 
	C1722.208862,389.391327 1722.161255,358.724487 1722.177368,328.057831 
	C1722.177856,327.053070 1722.373169,326.048462 1722.562500,324.227661 
	C1728.655884,332.236542 1734.203857,339.506500 1739.728516,346.794159 
	C1764.479370,379.442352 1789.213257,412.103577 1814.007690,444.718719 
	C1815.036011,446.071350 1816.568604,447.925690 1817.936401,447.987274 
	C1825.183105,448.313446 1832.452271,448.140442 1840.000000,448.140442 
	C1840.000000,445.743683 1840.000000,443.933563 1840.000000,442.123474 
	C1840.000000,392.290161 1840.121948,342.456116 1839.836792,292.624451 
	C1839.803345,286.787567 1840.976440,283.274811 1846.820435,281.728729 
	C1849.356445,281.057831 1851.785767,279.764740 1854.057373,278.408966 
	C1855.129395,277.769135 1856.346802,276.351837 1856.411499,275.224365 
	C1856.676147,270.611359 1856.521973,265.974274 1856.521973,261.288696 
	C1837.430298,261.288696 1818.857422,261.288696 1800.000000,261.288696 
	C1800.000000,264.546021 1800.337769,267.568634 1799.926025,270.485474 
	C1799.184326,275.739655 1800.816528,279.105194 1806.940186,280.512054 
M1257.648682,265.041046 
	C1251.536621,269.541809 1244.556763,273.234558 1239.474487,278.694000 
	C1223.909058,295.414917 1221.352539,333.151398 1249.043701,354.180695 
	C1262.252930,364.212036 1277.409058,369.917175 1292.921387,375.117645 
	C1300.908569,377.795349 1308.796143,381.042633 1316.235962,384.966858 
	C1320.001343,386.952911 1323.490356,390.530884 1325.679077,394.231964 
	C1331.571411,404.195312 1326.642456,416.078888 1314.542114,420.795166 
	C1298.591553,427.011993 1282.584351,426.075958 1267.020386,419.087738 
	C1265.343018,418.334656 1263.821411,416.261200 1263.129883,414.454773 
	C1260.159790,406.697418 1257.622314,398.774994 1254.683716,391.004791 
	C1254.154907,389.606842 1252.523193,387.687683 1251.328003,387.634216 
	C1244.227539,387.316742 1237.105591,387.477417 1229.667969,387.477417 
	C1229.472900,390.128357 1229.250488,392.247681 1229.171509,394.372345 
	C1228.671021,407.844757 1228.592285,421.349274 1227.527466,434.776031 
	C1227.113037,439.999359 1228.731689,442.839752 1233.227295,444.028442 
	C1235.402588,444.603638 1237.957520,443.815491 1240.330566,443.554901 
	C1244.319946,443.116882 1248.974365,441.020416 1252.179443,442.379608 
	C1277.166382,452.975739 1302.678101,453.831207 1328.417969,446.792969 
	C1347.622681,441.541595 1361.803955,430.001373 1365.902466,409.455872 
	C1370.222778,387.798950 1364.522217,369.227570 1346.754883,355.173096 
	C1334.420898,345.416687 1320.073975,339.745209 1305.303833,334.937592 
	C1294.865601,331.539948 1284.287964,328.323181 1275.611206,321.199036 
	C1262.908691,310.769592 1265.165649,294.414093 1280.328979,288.044556 
	C1293.293579,282.598541 1306.352051,283.644562 1319.081421,289.133698 
	C1320.457275,289.727020 1321.557373,291.682861 1322.150635,293.247375 
	C1325.330688,301.632111 1328.217285,310.128845 1331.450439,318.492065 
	C1331.975342,319.850006 1333.688110,321.632660 1334.919678,321.687286 
	C1341.870850,321.995483 1348.842896,321.836151 1355.786133,321.836151 
	C1356.009155,320.751312 1356.230835,320.108063 1356.262207,319.455658 
	C1357.044556,303.169464 1357.849487,286.883972 1358.480591,270.591797 
	C1358.524170,269.462250 1357.468628,268.053253 1356.547852,267.164124 
	C1352.507202,263.262390 1348.004761,265.207581 1343.468872,266.157379 
	C1340.557617,266.766937 1336.991699,267.690491 1334.556274,266.601501 
	C1309.344360,255.328217 1283.998657,255.381805 1257.648682,265.041046 
M1150.164307,700.267090 
	C1131.758667,650.376038 1113.321411,600.496643 1095.021118,550.566956 
	C1093.850098,547.371826 1092.352295,546.269470 1088.946533,546.373352 
	C1080.288086,546.637390 1071.612061,546.616760 1062.952026,546.380859 
	C1059.707397,546.292480 1058.348511,547.458557 1057.269409,550.426270 
	C1039.893188,598.213562 1022.172424,645.877319 1005.106201,693.774475 
	C1001.382202,704.226074 997.619446,713.450195 985.552490,716.176025 
	C984.481201,716.417969 983.024780,718.061951 982.961853,719.126526 
	C982.680298,723.884766 982.839355,728.669067 982.839355,733.585327 
	C1002.187683,733.585327 1020.934753,733.585327 1040.167725,733.585327 
	C1040.167725,729.048279 1040.414795,724.734863 1040.037964,720.476624 
	C1039.900146,718.920654 1038.624268,716.883850 1037.273071,716.125183 
	C1033.121094,713.793823 1028.681396,711.974731 1024.221924,709.895264 
	C1026.713257,703.067383 1028.925049,696.644836 1031.472046,690.358215 
	C1031.928467,689.231812 1033.764771,687.956726 1034.972412,687.947937 
	C1055.304077,687.799927 1075.637573,687.801086 1095.969360,687.941467 
	C1097.220947,687.950073 1099.149170,689.111633 1099.595703,690.210693 
	C1102.197998,696.617432 1104.451660,703.165771 1106.925293,709.946777 
	C1102.229004,712.097046 1097.810181,713.992981 1093.531616,716.165405 
	C1092.410645,716.734619 1091.025024,718.120850 1090.961060,719.202759 
	C1090.680542,723.952454 1090.840088,728.728088 1090.840088,733.525574 
	C1117.567993,733.525574 1143.635132,733.525574 1170.003174,733.525574 
	C1170.003174,730.737061 1169.652100,728.194946 1170.071167,725.786865 
	C1171.189331,719.361206 1168.921875,715.520508 1162.469727,713.875488 
	C1155.839355,712.184937 1151.573364,707.977051 1150.164307,700.267090 
M968.244751,601.991150 
	C968.829956,601.054504 969.862061,600.148376 969.928467,599.176331 
	C970.393066,592.373108 970.841675,585.559021 970.944824,578.743225 
	C971.105225,568.148987 970.987183,557.550537 970.987183,546.748901 
	C922.788757,546.748901 873.901489,546.748901 825.063110,546.748901 
	C822.591187,561.125732 823.258606,562.440063 835.639954,567.944275 
	C836.093933,568.146179 836.541321,568.389771 837.017944,568.509583 
	C840.281128,569.329529 841.100037,571.324890 841.088623,574.684204 
	C840.950928,615.329041 840.609619,655.981018 841.276672,696.615356 
	C841.440918,706.621033 839.615356,713.114502 829.217041,715.262817 
	C828.266846,715.459045 827.227966,715.884216 826.541504,716.532593 
	C825.684875,717.341736 824.617065,718.468262 824.569763,719.500366 
	C824.358398,724.114563 824.477844,728.743958 824.477844,733.438232 
	C852.225586,733.438232 879.409363,733.438232 906.836792,733.438232 
	C906.836792,728.887451 907.101318,724.708191 906.696838,720.594666 
	C906.550354,719.104370 905.099670,717.069580 903.733459,716.492798 
	C898.849243,714.430969 893.810974,712.653564 888.700867,711.237915 
	C885.712646,710.410095 884.901978,709.018372 884.930603,706.027222 
	C885.080688,690.370239 885.000671,674.710999 885.000671,659.052551 
	C885.000671,656.787048 885.000671,654.521606 885.000671,652.000793 
	C893.404541,652.000793 901.214661,652.153198 909.013428,651.920715 
	C911.867737,651.835632 913.106689,652.873474 914.071106,655.390869 
	C915.972046,660.352966 918.086731,665.244019 920.375793,670.039001 
	C920.961243,671.265503 922.465942,672.761658 923.656067,672.862610 
	C927.758484,673.210693 931.908630,672.996460 936.276245,672.996460 
	C936.276245,650.859497 936.276245,629.114746 936.276245,606.999329 
	C932.386780,606.999329 928.733276,607.216064 925.119446,606.930359 
	C922.257996,606.704041 920.998352,607.857056 920.042664,610.393433 
	C918.171082,615.361023 916.088623,620.259216 913.840454,625.067810 
	C913.254822,626.320435 911.762024,627.986023 910.643555,628.018921 
	C902.218933,628.266846 893.783752,628.154175 885.335205,628.154175 
	C885.335205,608.560242 885.335205,589.513062 885.335205,570.167236 
	C901.967285,570.167236 918.267395,570.099487 934.564026,570.307983 
	C935.745605,570.323120 937.487427,572.133606 937.973206,573.470947 
	C940.918701,581.579590 943.695862,589.755676 946.263794,597.992004 
	C947.191223,600.966980 948.464539,602.300232 951.801331,602.087097 
	C956.944336,601.758545 962.123779,602.000183 968.244751,601.991150 
M1449.500000,261.000031 
	C1433.746948,261.000031 1417.993896,261.000031 1402.000122,261.000031 
	C1402.000122,262.593445 1402.167969,263.605835 1401.974365,264.543549 
	C1399.926880,274.459442 1403.775635,280.570923 1413.686523,282.729767 
	C1417.982788,283.665588 1418.617920,286.436249 1418.604736,290.396210 
	C1418.473022,330.036591 1418.040039,369.687286 1418.831299,409.312317 
	C1419.057495,420.638641 1416.912109,428.037994 1405.130127,430.451447 
	C1404.652466,430.549286 1404.070312,430.718536 1403.785889,431.061188 
	C1403.113159,431.871552 1402.118408,432.790009 1402.086426,433.694214 
	C1401.917725,438.454407 1402.007446,443.223785 1402.007446,447.757996 
	C1450.189575,447.757996 1497.715698,447.757996 1545.427979,447.757996 
	C1544.614502,429.282501 1543.819336,411.220795 1543.009888,392.838104 
	C1536.190552,392.838104 1529.886230,392.674683 1523.604004,392.973480 
	C1522.319580,393.034576 1520.467896,394.584076 1519.983398,395.865570 
	C1516.871948,404.094452 1513.911865,412.390045 1511.249756,420.774078 
	C1510.330933,423.667389 1509.078003,424.638519 1506.035522,424.598511 
	C1492.879761,424.425537 1479.720215,424.535156 1466.562134,424.506866 
	C1465.297363,424.504150 1464.033081,424.258759 1462.475342,424.095245 
	C1462.475342,421.943237 1462.475464,420.131561 1462.475464,418.319855 
	C1462.475464,378.679016 1462.923706,339.029816 1462.183716,299.402771 
	C1461.979614,288.470459 1464.074951,281.304871 1475.427368,278.928802 
	C1475.741699,278.863007 1476.125488,278.711365 1476.301147,278.471191 
	C1477.177979,277.271973 1478.632812,276.072784 1478.718994,274.794922 
	C1479.018066,270.362762 1478.834595,265.898041 1478.834595,261.000031 
	C1469.069336,261.000031 1459.784668,261.000031 1449.500000,261.000031 
M269.585541,212.116440 
	C171.362289,275.722717 119.140572,390.248016 136.267365,506.032776 
	C146.653412,576.247070 178.001663,635.979492 230.809631,683.415649 
	C301.178680,746.626526 384.124908,771.113647 477.531342,757.584595 
	C542.304016,748.202881 598.222107,719.452209 643.778198,672.401306 
	C712.482117,601.443115 740.048584,516.152161 726.550964,418.524109 
	C717.339722,351.898773 687.454041,294.829651 638.767883,248.301834 
	C577.469482,189.720840 504.030426,161.980270 419.244751,164.849030 
	C365.276672,166.675079 315.679016,182.742966 269.585541,212.116440 
M1130.834473,409.491760 
	C1132.962646,420.499207 1129.538574,428.024170 1117.784912,430.368774 
	C1117.155151,430.494354 1116.453735,430.812958 1116.026123,431.267792 
	C1115.397949,431.935944 1114.573730,432.796173 1114.550781,433.595245 
	C1114.413696,438.354187 1114.482910,443.119049 1114.482910,447.791107 
	C1140.386230,447.791107 1165.599854,447.791107 1190.874268,447.791107 
	C1190.929199,446.766449 1190.887329,446.096954 1191.010986,445.459564 
	C1192.967896,435.377289 1189.664429,428.622986 1179.078247,426.349121 
	C1175.598999,425.601776 1174.738281,423.364166 1174.750366,419.832001 
	C1174.888550,379.680084 1175.281860,339.519348 1174.546631,299.380402 
	C1174.346680,288.457336 1176.409424,281.282959 1187.774292,278.912384 
	C1188.245239,278.814178 1188.818115,278.599304 1189.085083,278.244476 
	C1189.798096,277.296570 1190.868164,276.264099 1190.912598,275.227234 
	C1191.110352,270.618286 1190.998413,265.996094 1190.998413,261.273987 
	C1165.310181,261.273987 1140.091309,261.273987 1114.850220,261.273987 
	C1114.689941,262.008057 1114.513428,262.480804 1114.492554,262.960358 
	C1113.875000,277.036987 1113.813110,277.182922 1126.646729,282.850189 
	C1129.948486,284.308167 1130.922852,286.050598 1130.912109,289.536682 
	C1130.789917,329.188873 1130.834473,368.841614 1130.834473,409.491760 
M1593.500488,448.166077 
	C1612.781372,448.166077 1632.062378,448.166077 1651.261230,448.166077 
	C1653.588135,433.166290 1653.336914,432.682556 1640.508789,426.810211 
	C1640.205933,426.671570 1639.920532,426.469940 1639.603760,426.390350 
	C1635.923584,425.465820 1635.060059,423.142517 1635.073853,419.427124 
	C1635.221802,379.607727 1635.648315,339.777985 1634.860352,299.973633 
	C1634.635986,288.637054 1636.775879,281.221954 1648.578979,278.798859 
	C1649.210693,278.669189 1649.926025,278.370056 1650.344482,277.913452 
	C1650.960083,277.241821 1651.738159,276.368103 1651.760620,275.561432 
	C1651.892334,270.799530 1651.825317,266.032104 1651.825317,261.222839 
	C1625.929199,261.222839 1600.671997,261.222839 1575.612183,261.222839 
	C1575.308838,261.570160 1575.116211,261.686493 1575.106445,261.816345 
	C1573.995605,276.759125 1573.934570,276.897400 1587.444092,282.939514 
	C1590.703857,284.397339 1591.223511,286.327698 1591.216797,289.453186 
	C1591.132568,329.272949 1590.681274,369.102448 1591.465698,408.906921 
	C1591.689209,420.245941 1589.932861,427.995514 1577.911255,430.762360 
	C1576.748901,431.029877 1575.217773,432.873291 1575.131958,434.076080 
	C1574.804810,438.660400 1575.000000,443.281982 1575.000000,448.166138 
	C1581.220215,448.166138 1586.860596,448.166138 1593.500488,448.166077 
z"/>
<path fill="#FF1818" opacity="1.000000" stroke="none" 
	d="
M1520.182373,700.245483 
	C1519.013794,706.573364 1515.582397,708.625183 1509.567383,707.956726 
	C1504.465332,707.389648 1499.222412,707.510315 1494.093262,707.940735 
	C1489.750732,708.305176 1487.767334,706.810974 1486.131470,702.735657 
	C1473.012329,670.052551 1459.622925,637.477966 1446.311646,604.872131 
	C1445.845337,603.729858 1445.331055,602.607117 1444.002197,601.639343 
	C1444.002197,603.037292 1444.002075,604.435303 1444.002075,605.833252 
	C1444.002075,638.990601 1444.058716,672.148254 1443.919067,705.304993 
	C1443.904297,708.807068 1444.918823,710.519043 1448.190186,711.933899 
	C1461.437256,717.663208 1461.383301,717.791626 1460.446045,732.163635 
	C1460.425415,732.479736 1460.252930,732.785950 1460.030273,733.466919 
	C1441.618652,733.466919 1423.089722,733.466919 1404.001831,733.466919 
	C1404.001831,728.678772 1403.913574,723.897461 1404.083740,719.125488 
	C1404.114258,718.269836 1405.159790,717.405090 1405.842407,716.638611 
	C1406.147339,716.296021 1406.692261,716.091003 1407.164673,715.984558 
	C1418.301392,713.476501 1420.681396,706.540405 1420.466919,695.513245 
	C1419.689209,655.539612 1420.105103,615.541443 1420.249512,575.553162 
	C1420.263184,571.741333 1419.638184,569.024170 1415.622437,568.176575 
	C1405.173096,565.970825 1402.038208,559.295959 1403.986816,549.420959 
	C1404.143555,548.626770 1404.129028,547.798828 1404.236084,546.463074 
	C1406.129395,546.463074 1407.922241,546.463074 1409.714966,546.463074 
	C1428.043091,546.463074 1446.373291,546.603271 1464.697998,546.352661 
	C1468.678345,546.298279 1470.461426,547.518311 1471.958252,551.166931 
	C1484.822510,582.520630 1497.904907,613.784851 1510.925781,645.074219 
	C1511.690796,646.912415 1512.487427,648.737366 1513.544189,651.212402 
	C1515.752686,646.044556 1517.778198,641.413208 1519.718506,636.746521 
	C1531.582520,608.212280 1543.500366,579.699951 1555.188232,551.093628 
	C1556.699951,547.393799 1558.610718,546.311157 1562.514282,546.361694 
	C1580.339600,546.592468 1598.169556,546.463074 1615.997925,546.463074 
	C1617.631104,546.463074 1619.264160,546.463074 1621.520752,546.463074 
	C1621.520752,551.681030 1621.588501,556.454529 1621.453735,561.222412 
	C1621.431396,562.011780 1620.622192,562.872009 1619.991455,563.518982 
	C1619.560181,563.961304 1618.832275,564.204651 1618.194946,564.342102 
	C1606.644287,566.834045 1604.643555,574.158142 1604.860474,585.262573 
	C1605.640991,625.236084 1605.213867,665.234375 1605.084106,705.222717 
	C1605.072876,708.715332 1605.857422,710.958618 1609.356201,711.836243 
	C1609.675537,711.916382 1609.977905,712.074646 1610.279297,712.215332 
	C1623.107910,718.203796 1623.200317,718.384033 1621.026367,733.518799 
	C1595.862183,733.518799 1570.650024,733.518799 1544.840332,733.518799 
	C1544.840332,728.665161 1544.750244,723.887634 1544.920776,719.119385 
	C1544.952637,718.226929 1545.939209,717.287292 1546.656006,716.531372 
	C1547.079102,716.085266 1547.812500,715.835388 1548.448975,715.704285 
	C1559.632324,713.399841 1561.764404,706.396179 1561.453369,695.621094 
	C1560.602539,666.153992 1561.160400,636.646118 1561.160400,607.154419 
	C1561.160400,605.344543 1561.160278,603.534729 1561.160278,601.724854 
	C1560.855835,601.634094 1560.551514,601.543335 1560.247070,601.452576 
	C1546.935669,634.261597 1533.624146,667.070679 1520.182373,700.245483 
z"/>
<path fill="#FF1717" opacity="1.000000" stroke="none" 
	d="
M1020.581543,448.163727 
	C1011.624390,448.165771 1003.112061,447.888123 994.630310,448.277466 
	C990.049500,448.487732 988.132446,447.218170 986.832458,442.565552 
	C976.813599,406.709869 966.435974,370.954376 956.168396,335.168213 
	C955.710938,333.573853 955.242310,331.982697 953.873352,330.170227 
	C942.816772,369.293884 931.760193,408.417542 920.530457,448.153656 
	C909.691284,448.153656 898.735352,448.255463 887.788574,447.985718 
	C886.768066,447.960541 885.308594,445.726776 884.888672,444.276489 
	C874.211670,407.399261 863.644714,370.490173 853.062439,333.585510 
	C848.803284,318.732025 844.441956,303.906128 840.391113,288.996002 
	C839.555115,285.918945 838.289429,283.732056 835.234497,283.056854 
	C824.565735,280.698853 820.968506,273.987244 822.987610,263.662781 
	C823.112610,263.023651 823.064514,262.350708 823.114075,261.347534 
	C849.225525,261.347534 875.289978,261.347534 901.996338,261.347534 
	C901.996338,265.967438 902.190674,270.741730 901.859619,275.479309 
	C901.776917,276.662689 900.210083,278.131256 898.966370,278.773407 
	C894.847778,280.899841 890.565247,282.708801 885.919067,284.834717 
	C895.070679,321.193420 904.186584,357.410461 913.302551,393.627472 
	C913.577576,393.682343 913.852600,393.737183 914.127625,393.792053 
	C925.188660,350.718658 936.249634,307.645264 947.404602,264.206116 
	C959.075195,264.206116 970.823242,264.206116 983.077515,264.206116 
	C994.055603,307.288666 1005.083008,350.564484 1016.462646,395.222626 
	C1021.111389,377.099213 1025.427368,360.380981 1029.684448,343.647736 
	C1034.316406,325.440521 1038.802002,307.195282 1043.579346,289.026581 
	C1044.433228,285.778900 1043.797607,284.358978 1040.748657,282.993591 
	C1027.351929,276.994110 1027.392944,276.901276 1028.077271,262.064545 
	C1028.084229,261.915375 1028.182861,261.770447 1028.357422,261.310883 
	C1047.280884,261.310883 1066.324585,261.310883 1085.830078,261.310883 
	C1085.830078,266.092072 1086.032227,270.731293 1085.692505,275.330505 
	C1085.603882,276.530243 1083.996094,278.350037 1082.799316,278.621521 
	C1071.720703,281.134552 1068.095947,288.937408 1065.311157,299.181976 
	C1052.274536,347.140381 1038.459351,394.887482 1024.790039,442.672241 
	C1024.211548,444.694305 1022.319336,446.340515 1020.581543,448.163727 
z"/>
<path fill="#FF1717" opacity="1.000000" stroke="none" 
	d="
M1293.682861,682.353882 
	C1290.355469,674.870239 1287.099487,667.767517 1284.104370,660.556274 
	C1283.070679,658.067383 1281.815796,656.985168 1278.977295,657.091614 
	C1272.660400,657.328552 1266.328613,657.165527 1259.596924,657.165527 
	C1259.441040,658.585327 1259.185913,659.840637 1259.183594,661.096558 
	C1259.155884,676.093811 1259.258179,691.092224 1259.087036,706.087585 
	C1259.052979,709.075867 1259.921021,710.815735 1262.731812,711.615295 
	C1263.050293,711.705994 1263.357422,711.845520 1263.659546,711.984497 
	C1277.021362,718.131958 1277.021240,718.132324 1275.079834,733.477112 
	C1249.768555,733.477112 1224.409180,733.477112 1198.476929,733.477112 
	C1198.476929,728.756592 1198.356079,724.126343 1198.569702,719.511658 
	C1198.617432,718.479431 1199.751099,717.423645 1200.554321,716.531128 
	C1200.957642,716.083008 1201.718018,715.864990 1202.356323,715.732910 
	C1213.565674,713.412537 1215.476074,706.311523 1215.286133,695.610168 
	C1214.570679,655.296692 1214.947266,614.962708 1215.093018,574.637085 
	C1215.105225,571.255066 1214.049316,569.720581 1211.045776,568.406616 
	C1197.520752,562.489502 1197.539917,562.396545 1198.961060,546.714722 
	C1198.981323,546.491333 1202.168823,546.476562 1203.917114,546.475647 
	C1230.412354,546.461182 1256.908325,546.360535 1283.402710,546.505371 
	C1299.124756,546.591309 1314.680420,548.010132 1329.120483,555.056519 
	C1347.715820,564.130737 1357.662231,578.839111 1358.075195,599.737610 
	C1358.492310,620.848755 1350.416504,637.196533 1331.465576,647.499939 
	C1330.881836,647.817322 1330.263794,648.072266 1329.684448,648.396851 
	C1329.111328,648.717896 1328.567017,649.090210 1327.610107,649.691223 
	C1328.161255,651.151978 1328.652710,652.674438 1329.297119,654.129150 
	C1336.703247,670.849792 1344.218262,687.523010 1351.482788,704.304749 
	C1352.914795,707.613098 1354.798218,709.910889 1358.230591,710.965088 
	C1359.334717,711.304260 1360.373901,711.860352 1361.432983,712.339172 
	C1373.694702,717.882935 1374.526367,719.546143 1371.871826,733.838074 
	C1364.682861,733.838074 1357.395508,733.838074 1350.108154,733.838074 
	C1340.443237,733.838074 1330.774414,733.684814 1321.115234,733.919983 
	C1317.667480,734.003967 1315.822632,733.037964 1314.419556,729.743347 
	C1307.713501,713.996460 1300.736938,698.364746 1293.682861,682.353882 
M1259.157959,599.500000 
	C1259.157959,610.770020 1259.157959,622.040039 1259.157959,633.841980 
	C1267.934326,633.841980 1276.205933,633.850342 1284.477661,633.840088 
	C1299.023926,633.822205 1308.377686,626.579224 1311.517212,612.369507 
	C1312.510376,607.873291 1312.923462,603.119507 1312.743164,598.517212 
	C1312.170776,583.917053 1304.561279,572.874146 1292.375244,571.397522 
	C1281.625488,570.094849 1270.593140,571.124878 1259.158081,571.124878 
	C1259.158081,579.954529 1259.158081,589.227234 1259.157959,599.500000 
z"/>
<path fill="#FF1717" opacity="1.000000" stroke="none" 
	d="
M1806.594727,280.336548 
	C1800.816528,279.105194 1799.184326,275.739655 1799.926025,270.485474 
	C1800.337769,267.568634 1800.000000,264.546021 1800.000000,261.288696 
	C1818.857422,261.288696 1837.430298,261.288696 1856.521973,261.288696 
	C1856.521973,265.974274 1856.676147,270.611359 1856.411499,275.224365 
	C1856.346802,276.351837 1855.129395,277.769135 1854.057373,278.408966 
	C1851.785767,279.764740 1849.356445,281.057831 1846.820435,281.728729 
	C1840.976440,283.274811 1839.803345,286.787567 1839.836792,292.624451 
	C1840.121948,342.456116 1840.000000,392.290161 1840.000000,442.123474 
	C1840.000000,443.933563 1840.000000,445.743683 1840.000000,448.140442 
	C1832.452271,448.140442 1825.183105,448.313446 1817.936401,447.987274 
	C1816.568604,447.925690 1815.036011,446.071350 1814.007690,444.718719 
	C1789.213257,412.103577 1764.479370,379.442352 1739.728516,346.794159 
	C1734.203857,339.506500 1728.655884,332.236542 1722.562500,324.227661 
	C1722.373169,326.048462 1722.177856,327.053070 1722.177368,328.057831 
	C1722.161255,358.724487 1722.208862,389.391327 1722.094727,420.057587 
	C1722.083374,423.116425 1722.666626,425.214233 1725.810425,426.039215 
	C1726.126099,426.122040 1726.409912,426.323303 1726.711182,426.463928 
	C1740.057495,432.694214 1740.057495,432.694153 1738.071045,447.868652 
	C1719.557373,447.868652 1701.003540,447.868652 1682.004883,447.868652 
	C1682.004883,443.105438 1681.915039,438.475769 1682.081177,433.855316 
	C1682.114258,432.934387 1683.059937,431.996246 1683.717651,431.171875 
	C1683.989380,430.831238 1684.594482,430.693237 1685.075195,430.591736 
	C1697.140747,428.044128 1699.012573,420.314880 1698.779541,408.885986 
	C1697.970947,369.235840 1698.403198,329.558777 1698.566406,289.892792 
	C1698.582764,285.913055 1697.591553,283.510925 1693.662109,282.660614 
	C1683.677979,280.500061 1679.977173,274.336151 1681.975098,264.465393 
	C1682.163818,263.532837 1682.000122,262.528931 1682.000122,260.999664 
	C1693.067505,260.999664 1703.927979,261.862488 1714.586670,260.765167 
	C1726.013062,259.588837 1732.725464,263.765900 1739.419556,273.045227 
	C1763.286377,306.129425 1788.235596,338.432831 1812.780884,371.027588 
	C1813.579590,372.088379 1814.437744,373.104431 1815.859863,374.880066 
	C1816.130493,373.016785 1816.444214,371.858643 1816.445435,370.700165 
	C1816.473022,343.366882 1816.419678,316.033325 1816.535522,288.700500 
	C1816.548096,285.732697 1815.700806,284.045166 1812.874756,283.125153 
	C1810.829834,282.459412 1808.913696,281.397369 1806.594727,280.336548 
z"/>
<path fill="#FF1717" opacity="1.000000" stroke="none" 
	d="
M1258.006836,264.916595 
	C1283.998657,255.381805 1309.344360,255.328217 1334.556274,266.601501 
	C1336.991699,267.690491 1340.557617,266.766937 1343.468872,266.157379 
	C1348.004761,265.207581 1352.507202,263.262390 1356.547852,267.164124 
	C1357.468628,268.053253 1358.524170,269.462250 1358.480591,270.591797 
	C1357.849487,286.883972 1357.044556,303.169464 1356.262207,319.455658 
	C1356.230835,320.108063 1356.009155,320.751312 1355.786133,321.836151 
	C1348.842896,321.836151 1341.870850,321.995483 1334.919678,321.687286 
	C1333.688110,321.632660 1331.975342,319.850006 1331.450439,318.492065 
	C1328.217285,310.128845 1325.330688,301.632111 1322.150635,293.247375 
	C1321.557373,291.682861 1320.457275,289.727020 1319.081421,289.133698 
	C1306.352051,283.644562 1293.293579,282.598541 1280.328979,288.044556 
	C1265.165649,294.414093 1262.908691,310.769592 1275.611206,321.199036 
	C1284.287964,328.323181 1294.865601,331.539948 1305.303833,334.937592 
	C1320.073975,339.745209 1334.420898,345.416687 1346.754883,355.173096 
	C1364.522217,369.227570 1370.222778,387.798950 1365.902466,409.455872 
	C1361.803955,430.001373 1347.622681,441.541595 1328.417969,446.792969 
	C1302.678101,453.831207 1277.166382,452.975739 1252.179443,442.379608 
	C1248.974365,441.020416 1244.319946,443.116882 1240.330566,443.554901 
	C1237.957520,443.815491 1235.402588,444.603638 1233.227295,444.028442 
	C1228.731689,442.839752 1227.113037,439.999359 1227.527466,434.776031 
	C1228.592285,421.349274 1228.671021,407.844757 1229.171509,394.372345 
	C1229.250488,392.247681 1229.472900,390.128357 1229.667969,387.477417 
	C1237.105591,387.477417 1244.227539,387.316742 1251.328003,387.634216 
	C1252.523193,387.687683 1254.154907,389.606842 1254.683716,391.004791 
	C1257.622314,398.774994 1260.159790,406.697418 1263.129883,414.454773 
	C1263.821411,416.261200 1265.343018,418.334656 1267.020386,419.087738 
	C1282.584351,426.075958 1298.591553,427.011993 1314.542114,420.795166 
	C1326.642456,416.078888 1331.571411,404.195312 1325.679077,394.231964 
	C1323.490356,390.530884 1320.001343,386.952911 1316.235962,384.966858 
	C1308.796143,381.042633 1300.908569,377.795349 1292.921387,375.117645 
	C1277.409058,369.917175 1262.252930,364.212036 1249.043701,354.180695 
	C1221.352539,333.151398 1223.909058,295.414917 1239.474487,278.694000 
	C1244.556763,273.234558 1251.536621,269.541809 1258.006836,264.916595 
z"/>
<path fill="#FF1818" opacity="1.000000" stroke="none" 
	d="
M1150.309082,700.629333 
	C1151.573364,707.977051 1155.839355,712.184937 1162.469727,713.875488 
	C1168.921875,715.520508 1171.189331,719.361206 1170.071167,725.786865 
	C1169.652100,728.194946 1170.003174,730.737061 1170.003174,733.525574 
	C1143.635132,733.525574 1117.567993,733.525574 1090.840088,733.525574 
	C1090.840088,728.728088 1090.680542,723.952454 1090.961060,719.202759 
	C1091.025024,718.120850 1092.410645,716.734619 1093.531616,716.165405 
	C1097.810181,713.992981 1102.229004,712.097046 1106.925293,709.946777 
	C1104.451660,703.165771 1102.197998,696.617432 1099.595703,690.210693 
	C1099.149170,689.111633 1097.220947,687.950073 1095.969360,687.941467 
	C1075.637573,687.801086 1055.304077,687.799927 1034.972412,687.947937 
	C1033.764771,687.956726 1031.928467,689.231812 1031.472046,690.358215 
	C1028.925049,696.644836 1026.713257,703.067383 1024.221924,709.895264 
	C1028.681396,711.974731 1033.121094,713.793823 1037.273071,716.125183 
	C1038.624268,716.883850 1039.900146,718.920654 1040.037964,720.476624 
	C1040.414795,724.734863 1040.167725,729.048279 1040.167725,733.585327 
	C1020.934753,733.585327 1002.187683,733.585327 982.839355,733.585327 
	C982.839355,728.669067 982.680298,723.884766 982.961853,719.126526 
	C983.024780,718.061951 984.481201,716.417969 985.552490,716.176025 
	C997.619446,713.450195 1001.382202,704.226074 1005.106201,693.774475 
	C1022.172424,645.877319 1039.893188,598.213562 1057.269409,550.426270 
	C1058.348511,547.458557 1059.707397,546.292480 1062.952026,546.380859 
	C1071.612061,546.616760 1080.288086,546.637390 1088.946533,546.373352 
	C1092.352295,546.269470 1093.850098,547.371826 1095.021118,550.566956 
	C1113.321411,600.496643 1131.758667,650.376038 1150.309082,700.629333 
M1048.071167,644.610352 
	C1045.821167,650.964050 1043.571045,657.317749 1041.252686,663.864197 
	C1057.811279,663.864197 1073.704590,663.864197 1090.001465,663.864197 
	C1081.807373,641.819275 1073.760986,620.171631 1065.313354,597.444519 
	C1059.393188,613.655151 1053.873779,628.768250 1048.071167,644.610352 
z"/>
<path fill="#FF1717" opacity="1.000000" stroke="none" 
	d="
M967.766235,601.995483 
	C962.123779,602.000183 956.944336,601.758545 951.801331,602.087097 
	C948.464539,602.300232 947.191223,600.966980 946.263794,597.992004 
	C943.695862,589.755676 940.918701,581.579590 937.973206,573.470947 
	C937.487427,572.133606 935.745605,570.323120 934.564026,570.307983 
	C918.267395,570.099487 901.967285,570.167236 885.335205,570.167236 
	C885.335205,589.513062 885.335205,608.560242 885.335205,628.154175 
	C893.783752,628.154175 902.218933,628.266846 910.643555,628.018921 
	C911.762024,627.986023 913.254822,626.320435 913.840454,625.067810 
	C916.088623,620.259216 918.171082,615.361023 920.042664,610.393433 
	C920.998352,607.857056 922.257996,606.704041 925.119446,606.930359 
	C928.733276,607.216064 932.386780,606.999329 936.276245,606.999329 
	C936.276245,629.114746 936.276245,650.859497 936.276245,672.996460 
	C931.908630,672.996460 927.758484,673.210693 923.656067,672.862610 
	C922.465942,672.761658 920.961243,671.265503 920.375793,670.039001 
	C918.086731,665.244019 915.972046,660.352966 914.071106,655.390869 
	C913.106689,652.873474 911.867737,651.835632 909.013428,651.920715 
	C901.214661,652.153198 893.404541,652.000793 885.000671,652.000793 
	C885.000671,654.521606 885.000671,656.787048 885.000671,659.052551 
	C885.000671,674.710999 885.080688,690.370239 884.930603,706.027222 
	C884.901978,709.018372 885.712646,710.410095 888.700867,711.237915 
	C893.810974,712.653564 898.849243,714.430969 903.733459,716.492798 
	C905.099670,717.069580 906.550354,719.104370 906.696838,720.594666 
	C907.101318,724.708191 906.836792,728.887451 906.836792,733.438232 
	C879.409363,733.438232 852.225586,733.438232 824.477844,733.438232 
	C824.477844,728.743958 824.358398,724.114563 824.569763,719.500366 
	C824.617065,718.468262 825.684875,717.341736 826.541504,716.532593 
	C827.227966,715.884216 828.266846,715.459045 829.217041,715.262817 
	C839.615356,713.114502 841.440918,706.621033 841.276672,696.615356 
	C840.609619,655.981018 840.950928,615.329041 841.088623,574.684204 
	C841.100037,571.324890 840.281128,569.329529 837.017944,568.509583 
	C836.541321,568.389771 836.093933,568.146179 835.639954,567.944275 
	C823.258606,562.440063 822.591187,561.125732 825.063110,546.748901 
	C873.901489,546.748901 922.788757,546.748901 970.987183,546.748901 
	C970.987183,557.550537 971.105225,568.148987 970.944824,578.743225 
	C970.841675,585.559021 970.393066,592.373108 969.928467,599.176331 
	C969.862061,600.148376 968.829956,601.054504 967.766235,601.995483 
z"/>
<path fill="#FF1616" opacity="1.000000" stroke="none" 
	d="
M1450.000000,261.000031 
	C1459.784668,261.000031 1469.069336,261.000031 1478.834595,261.000031 
	C1478.834595,265.898041 1479.018066,270.362762 1478.718994,274.794922 
	C1478.632812,276.072784 1477.177979,277.271973 1476.301147,278.471191 
	C1476.125488,278.711365 1475.741699,278.863007 1475.427368,278.928802 
	C1464.074951,281.304871 1461.979614,288.470459 1462.183716,299.402771 
	C1462.923706,339.029816 1462.475464,378.679016 1462.475464,418.319855 
	C1462.475464,420.131561 1462.475342,421.943237 1462.475342,424.095245 
	C1464.033081,424.258759 1465.297363,424.504150 1466.562134,424.506866 
	C1479.720215,424.535156 1492.879761,424.425537 1506.035522,424.598511 
	C1509.078003,424.638519 1510.330933,423.667389 1511.249756,420.774078 
	C1513.911865,412.390045 1516.871948,404.094452 1519.983398,395.865570 
	C1520.467896,394.584076 1522.319580,393.034576 1523.604004,392.973480 
	C1529.886230,392.674683 1536.190552,392.838104 1543.009888,392.838104 
	C1543.819336,411.220795 1544.614502,429.282501 1545.427979,447.757996 
	C1497.715698,447.757996 1450.189575,447.757996 1402.007446,447.757996 
	C1402.007446,443.223785 1401.917725,438.454407 1402.086426,433.694214 
	C1402.118408,432.790009 1403.113159,431.871552 1403.785889,431.061188 
	C1404.070312,430.718536 1404.652466,430.549286 1405.130127,430.451447 
	C1416.912109,428.037994 1419.057495,420.638641 1418.831299,409.312317 
	C1418.040039,369.687286 1418.473022,330.036591 1418.604736,290.396210 
	C1418.617920,286.436249 1417.982788,283.665588 1413.686523,282.729767 
	C1403.775635,280.570923 1399.926880,274.459442 1401.974365,264.543549 
	C1402.167969,263.605835 1402.000122,262.593445 1402.000122,261.000031 
	C1417.993896,261.000031 1433.746948,261.000031 1450.000000,261.000031 
z"/>
<path fill="#FF2020" opacity="1.000000" stroke="none" 
	d="
M269.897369,211.933655 
	C315.679016,182.742966 365.276672,166.675079 419.244751,164.849030 
	C504.030426,161.980270 577.469482,189.720840 638.767883,248.301834 
	C687.454041,294.829651 717.339722,351.898773 726.550964,418.524109 
	C740.048584,516.152161 712.482117,601.443115 643.778198,672.401306 
	C598.222107,719.452209 542.304016,748.202881 477.531342,757.584595 
	C384.124908,771.113647 301.178680,746.626526 230.809631,683.415649 
	C178.001663,635.979492 146.653412,576.247070 136.267365,506.032776 
	C119.140572,390.248016 171.362289,275.722717 269.897369,211.933655 
M339.457336,184.894485 
	C227.483826,220.386642 144.847321,328.153442 139.148987,445.957886 
	C136.576904,499.132050 146.879883,549.509399 171.217926,596.954834 
	C227.960175,707.570129 349.946136,770.750793 473.150726,752.753052 
	C539.262695,743.095398 596.238098,714.464294 642.196167,665.907471 
	C708.725525,595.616089 734.810669,511.711395 720.507507,416.170807 
	C710.724670,350.824707 681.198853,294.567017 632.277710,250.106384 
	C547.686646,173.227936 449.733398,152.156189 339.457336,184.894485 
z"/>
<path fill="#FF1717" opacity="1.000000" stroke="none" 
	d="
M1130.834473,408.992981 
	C1130.834473,368.841614 1130.789917,329.188873 1130.912109,289.536682 
	C1130.922852,286.050598 1129.948486,284.308167 1126.646729,282.850189 
	C1113.813110,277.182922 1113.875000,277.036987 1114.492554,262.960358 
	C1114.513428,262.480804 1114.689941,262.008057 1114.850220,261.273987 
	C1140.091309,261.273987 1165.310181,261.273987 1190.998413,261.273987 
	C1190.998413,265.996094 1191.110352,270.618286 1190.912598,275.227234 
	C1190.868164,276.264099 1189.798096,277.296570 1189.085083,278.244476 
	C1188.818115,278.599304 1188.245239,278.814178 1187.774292,278.912384 
	C1176.409424,281.282959 1174.346680,288.457336 1174.546631,299.380402 
	C1175.281860,339.519348 1174.888550,379.680084 1174.750366,419.832001 
	C1174.738281,423.364166 1175.598999,425.601776 1179.078247,426.349121 
	C1189.664429,428.622986 1192.967896,435.377289 1191.010986,445.459564 
	C1190.887329,446.096954 1190.929199,446.766449 1190.874268,447.791107 
	C1165.599854,447.791107 1140.386230,447.791107 1114.482910,447.791107 
	C1114.482910,443.119049 1114.413696,438.354187 1114.550781,433.595245 
	C1114.573730,432.796173 1115.397949,431.935944 1116.026123,431.267792 
	C1116.453735,430.812958 1117.155151,430.494354 1117.784912,430.368774 
	C1129.538574,428.024170 1132.962646,420.499207 1130.834473,408.992981 
z"/>
<path fill="#FF1717" opacity="1.000000" stroke="none" 
	d="
M1593.000732,448.166107 
	C1586.860596,448.166138 1581.220215,448.166138 1575.000000,448.166138 
	C1575.000000,443.281982 1574.804810,438.660400 1575.131958,434.076080 
	C1575.217773,432.873291 1576.748901,431.029877 1577.911255,430.762360 
	C1589.932861,427.995514 1591.689209,420.245941 1591.465698,408.906921 
	C1590.681274,369.102448 1591.132568,329.272949 1591.216797,289.453186 
	C1591.223511,286.327698 1590.703857,284.397339 1587.444092,282.939514 
	C1573.934570,276.897400 1573.995605,276.759125 1575.106445,261.816345 
	C1575.116211,261.686493 1575.308838,261.570160 1575.612183,261.222839 
	C1600.671997,261.222839 1625.929199,261.222839 1651.825317,261.222839 
	C1651.825317,266.032104 1651.892334,270.799530 1651.760620,275.561432 
	C1651.738159,276.368103 1650.960083,277.241821 1650.344482,277.913452 
	C1649.926025,278.370056 1649.210693,278.669189 1648.578979,278.798859 
	C1636.775879,281.221954 1634.635986,288.637054 1634.860352,299.973633 
	C1635.648315,339.777985 1635.221802,379.607727 1635.073853,419.427124 
	C1635.060059,423.142517 1635.923584,425.465820 1639.603760,426.390350 
	C1639.920532,426.469940 1640.205933,426.671570 1640.508789,426.810211 
	C1653.336914,432.682556 1653.588135,433.166290 1651.261230,448.166077 
	C1632.062378,448.166077 1612.781372,448.166077 1593.000732,448.166107 
z"/>
<path fill="#FFFCFC" opacity="1.000000" stroke="none" 
	d="
M1259.157959,599.000000 
	C1259.158081,589.227234 1259.158081,579.954529 1259.158081,571.124878 
	C1270.593140,571.124878 1281.625488,570.094849 1292.375244,571.397522 
	C1304.561279,572.874146 1312.170776,583.917053 1312.743164,598.517212 
	C1312.923462,603.119507 1312.510376,607.873291 1311.517212,612.369507 
	C1308.377686,626.579224 1299.023926,633.822205 1284.477661,633.840088 
	C1276.205933,633.850342 1267.934326,633.841980 1259.157959,633.841980 
	C1259.157959,622.040039 1259.157959,610.770020 1259.157959,599.000000 
z"/>
<path fill="#FFFDFD" opacity="1.000000" stroke="none" 
	d="
M1048.212646,644.245850 
	C1053.873779,628.768250 1059.393188,613.655151 1065.313354,597.444519 
	C1073.760986,620.171631 1081.807373,641.819275 1090.001465,663.864197 
	C1073.704590,663.864197 1057.811279,663.864197 1041.252686,663.864197 
	C1043.571045,657.317749 1045.821167,650.964050 1048.212646,644.245850 
z"/>
<path fill="#FFFCFC" opacity="1.000000" stroke="none" 
	d="
M339.828644,184.753540 
	C449.733398,152.156189 547.686646,173.227936 632.277710,250.106384 
	C681.198853,294.567017 710.724670,350.824707 720.507507,416.170807 
	C734.810669,511.711395 708.725525,595.616089 642.196167,665.907471 
	C596.238098,714.464294 539.262695,743.095398 473.150726,752.753052 
	C349.946136,770.750793 227.960175,707.570129 171.217926,596.954834 
	C146.879883,549.509399 136.576904,499.132050 139.148987,445.957886 
	C144.847321,328.153442 227.483826,220.386642 339.828644,184.753540 
M223.096603,641.408447 
	C229.775406,648.379028 236.061523,655.782593 243.194397,662.252625 
	C306.590332,719.757507 380.903259,744.211670 465.963318,734.020081 
	C527.014038,726.705261 579.942749,701.045654 623.277649,657.601135 
	C687.122498,593.594666 713.867737,515.894409 702.985107,426.086365 
	C695.097900,360.997650 666.556641,305.470825 618.275696,261.334351 
	C547.679932,196.798615 464.410553,174.014297 370.920166,194.097794 
	C237.372787,222.786301 141.330734,349.734161 158.270630,494.615448 
	C164.725433,549.821228 186.599442,598.534241 223.096603,641.408447 
z"/>
<path fill="#FF2121" opacity="1.000000" stroke="none" 
	d="
M222.871735,641.134888 
	C186.599442,598.534241 164.725433,549.821228 158.270630,494.615448 
	C141.330734,349.734161 237.372787,222.786301 370.920166,194.097794 
	C464.410553,174.014297 547.679932,196.798615 618.275696,261.334351 
	C666.556641,305.470825 695.097900,360.997650 702.985107,426.086365 
	C713.867737,515.894409 687.122498,593.594666 623.277649,657.601135 
	C579.942749,701.045654 527.014038,726.705261 465.963318,734.020081 
	C380.903259,744.211670 306.590332,719.757507 243.194397,662.252625 
	C236.061523,655.782593 229.775406,648.379028 222.871735,641.134888 
M228.318924,449.821014 
	C227.501114,447.900970 226.683289,445.980957 225.865479,444.060913 
	C225.400543,444.270752 224.935608,444.480560 224.470673,444.690399 
	C225.525101,446.910889 226.579529,449.131378 227.868240,452.103210 
	C227.036392,453.394196 226.204544,454.685211 225.764328,455.368378 
	C228.019119,456.485291 230.856155,457.890594 233.897964,459.760559 
	C234.192123,459.914154 234.486298,460.067749 235.104340,460.847076 
	C236.524338,461.673828 237.863083,462.984100 239.379196,463.238922 
	C244.402664,464.083191 245.194427,467.034393 245.123993,471.641693 
	C244.852524,489.401306 245.013855,507.167542 245.013855,525.279236 
	C250.672836,525.795227 255.092651,526.198242 260.982544,526.735291 
	C260.982544,516.372742 260.982574,506.276581 260.982574,496.180389 
	C260.982574,485.899200 260.982544,475.618011 260.982544,466.900787 
	C266.607788,462.987518 271.159302,459.821198 276.303741,456.441132 
	C276.445312,455.650238 276.586884,454.859314 277.240601,453.555939 
	C281.190704,448.135345 282.721619,442.151886 281.934753,436.659607 
	C279.897278,441.909668 277.541443,447.980072 274.870392,454.394104 
	C274.668976,454.634247 274.508240,454.899109 273.869446,455.631744 
	C269.992249,458.388367 266.115021,461.145020 262.237793,463.901672 
	C261.925049,463.518524 261.612335,463.135406 261.299591,462.752289 
	C261.558075,461.874237 261.816589,460.996216 262.569519,459.757416 
	C262.728027,459.201660 262.886536,458.645905 263.045044,458.090179 
	C262.700409,458.128082 262.355774,458.165985 261.441833,458.709045 
	C255.638214,465.017303 249.570923,463.230652 243.187576,458.447906 
	C243.774597,460.486938 244.117462,461.677856 244.729492,463.803741 
	C241.032379,461.953125 238.257294,460.564056 235.259750,458.892731 
	C235.095078,458.711945 234.900696,458.572571 234.258789,457.949524 
	C232.370758,455.459991 230.482742,452.970490 228.318924,449.821014 
M284.830505,450.053497 
	C287.818665,446.291016 290.806824,442.528564 293.743835,438.830475 
	C296.283417,442.274963 295.691162,446.040985 293.484039,449.714478 
	C290.430939,454.796143 285.902649,457.572327 280.242218,459.546051 
	C274.945557,461.392914 270.206543,464.856995 265.276276,467.703247 
	C264.874176,467.935364 264.745117,468.889069 264.735687,469.511230 
	C264.684753,472.874847 264.711548,476.239655 264.711548,478.859497 
	C267.363495,478.357056 269.642517,477.182098 271.386993,477.724945 
	C278.477448,479.931274 279.333496,479.583038 283.086731,472.928223 
	C284.004913,471.300262 286.453186,469.531097 288.187195,469.541992 
	C295.521912,469.588196 298.411194,468.172607 301.491486,461.665009 
	C304.389008,455.543488 305.086029,449.147430 302.879242,442.741760 
	C301.636108,439.133331 302.456909,437.015503 305.448456,434.714722 
	C316.287720,426.378326 318.581055,414.585388 316.761902,402.041565 
	C316.271423,398.659424 312.483826,394.975494 309.243805,393.088470 
	C307.525360,392.087646 303.734680,394.644836 300.216827,395.816559 
	C300.084076,394.259155 299.991821,391.882568 299.660187,389.539886 
	C298.805389,383.501129 298.541107,377.258148 296.731567,371.508881 
	C294.899658,365.688538 290.069702,364.317169 284.781311,367.095245 
	C282.508453,368.289246 281.074493,368.330719 280.271393,365.640198 
	C279.068268,361.609558 277.247498,362.405212 275.198059,364.995880 
	C274.382263,366.027130 273.558014,367.051697 272.233856,368.710266 
	C271.645081,366.137238 271.451904,364.471191 270.866974,362.956482 
	C270.217316,361.274261 269.428864,359.556396 268.318054,358.158142 
	C264.929718,353.893036 261.285065,354.157349 257.871521,358.394623 
	C257.289062,359.117676 254.877319,359.408203 254.175323,358.836578 
	C244.739594,351.153564 236.859039,353.475525 233.456558,365.106079 
	C231.578735,371.525024 231.273102,371.599823 225.988373,366.463776 
	C224.981522,367.742035 223.782227,368.874115 223.063095,370.256073 
	C221.383453,373.483734 219.607315,374.332245 217.358490,370.866394 
	C215.507248,368.013245 213.121094,368.512756 211.728210,370.696564 
	C210.017868,373.378052 208.611435,376.558990 208.201340,379.672577 
	C207.839218,382.421753 209.025833,385.374908 209.723312,389.346710 
	C207.632767,388.562042 205.987869,388.221191 204.647568,387.389496 
	C200.705490,384.943237 197.164780,385.120514 194.731995,388.979034 
	C192.649673,392.281677 190.865479,396.043335 190.073822,399.836609 
	C187.910049,410.204254 191.145905,419.480591 196.887177,428.103638 
	C197.671783,429.282104 197.559280,431.057831 197.862137,432.557037 
	C196.490417,432.741241 195.082108,433.218994 193.754013,433.053375 
	C190.111206,432.599091 186.989716,433.917358 186.119217,437.211151 
	C184.704697,442.563477 183.029282,448.326630 183.681747,453.644257 
	C184.985764,464.272003 192.508438,467.541473 202.178848,462.905243 
	C203.368195,462.335022 204.932358,462.546570 206.322830,462.395813 
	C206.283356,463.761963 206.474945,465.183929 206.160934,466.483765 
	C205.233109,470.324402 205.395264,473.531921 209.030807,476.203796 
	C210.782120,477.490906 212.194748,479.760284 212.882614,481.871063 
	C214.643661,487.274872 220.130966,489.057251 224.181229,485.012695 
	C225.640854,483.555115 226.254059,481.286407 227.484558,479.551727 
	C228.540039,478.063873 229.925034,476.809753 231.652634,474.917358 
	C234.282410,483.886169 235.256454,484.812988 241.290680,484.516266 
	C240.459595,477.060577 245.581100,467.878418 233.812241,464.094727 
	C230.187439,462.929382 227.028076,460.387238 223.470840,458.924988 
	C217.434357,456.443573 212.968384,452.583740 210.985535,446.243713 
	C210.092316,443.387787 210.246704,440.767487 212.717758,439.471191 
	C215.608414,443.432983 218.291519,447.110321 220.974609,450.787659 
	C221.450928,450.487488 221.927261,450.187347 222.403580,449.887207 
	C222.083389,448.480713 221.469788,447.068909 221.495316,445.668701 
	C221.591064,440.414307 221.714127,435.143860 222.286163,429.929779 
	C222.391159,428.972870 224.637146,428.250885 225.894882,427.420441 
	C226.550171,428.633514 227.518204,429.782166 227.784592,431.075348 
	C228.148804,432.843323 227.854462,434.735413 228.060745,436.549500 
	C228.863846,443.612640 231.190933,449.982269 237.196793,455.922302 
	C236.880005,453.703247 236.623535,452.635223 236.590851,451.560394 
	C236.364853,444.128998 236.062363,436.695160 236.121338,429.264801 
	C236.130386,428.125305 237.875366,426.999634 238.817535,425.867584 
	C239.799088,427.011505 241.430298,428.051422 241.633423,429.320038 
	C242.129562,432.418457 241.543732,435.707275 242.157776,438.766022 
	C243.290131,444.406708 244.395218,450.178345 246.598862,455.440094 
	C248.475311,459.920563 254.041794,460.606934 257.612091,457.731720 
	C261.591156,454.527313 262.025604,450.345978 259.025665,446.600769 
	C255.463684,442.153809 253.450226,437.021545 254.582443,431.325562 
	C254.905975,429.697937 257.180023,428.458069 258.559662,427.040405 
	C259.435272,428.629486 260.652008,430.126923 261.109009,431.828430 
	C261.850647,434.589752 262.094330,437.484833 262.548248,440.323425 
	C263.100494,440.244781 263.652740,440.166138 264.204987,440.087494 
	C264.204987,436.429108 263.945099,432.741364 264.352814,429.128998 
	C264.486786,427.942230 266.350830,426.950714 267.423737,425.869904 
	C268.269775,426.930725 269.760498,427.939362 269.851349,429.061340 
	C270.265991,434.180115 270.515350,439.337128 270.370667,444.467590 
	C270.273071,447.927704 269.420227,451.366516 268.699402,456.192871 
	C275.615509,448.675415 277.945679,441.035431 278.122406,432.421844 
	C278.158203,430.677399 279.716736,428.964203 280.573273,427.236603 
	C281.884094,428.748688 284.281769,430.238678 284.313049,431.776764 
	C284.433014,437.677094 283.793640,443.592865 283.168884,449.930237 
	C283.219086,450.168915 283.269287,450.407593 283.319489,450.646301 
	C283.594696,450.481537 283.869904,450.316772 284.830505,450.053497 
M203.975266,382.876099 
	C204.171753,382.420563 204.368225,381.965027 204.750626,380.800995 
	C205.217896,378.031799 205.233444,375.084900 206.239395,372.527618 
	C208.965042,365.598480 213.724991,364.017334 218.886108,366.992310 
	C222.887085,365.307922 226.244125,363.894592 230.854919,361.953461 
	C236.289001,349.919922 243.771484,347.322449 255.666702,354.766571 
	C262.563110,349.326874 267.461578,350.806915 274.439087,359.622742 
	C277.396454,360.102539 280.062012,361.214294 282.741882,362.290375 
	C283.418060,362.561890 284.160461,362.953125 284.837891,362.894012 
	C294.992950,362.008026 299.564545,365.133972 301.679047,375.124359 
	C302.688416,379.893341 302.940826,384.822510 303.536682,389.683777 
	C311.727356,388.068115 319.447327,392.998962 320.399384,401.690338 
	C321.846008,414.896301 319.658112,427.391754 308.601318,436.489899 
	C306.147217,438.509277 305.726990,440.219391 306.510651,443.241058 
	C308.461243,450.762268 307.466980,458.089569 303.623779,464.932343 
	C300.625305,470.271149 296.434143,473.497162 289.915375,473.109283 
	C288.609528,473.031525 286.643311,473.773651 285.980133,474.789581 
	C280.392639,483.349426 279.185425,483.890686 268.888824,480.958282 
	C267.413788,482.934326 264.488617,485.043945 264.414795,487.249023 
	C263.976501,500.343933 264.198364,513.460876 264.198364,527.502258 
	C263.480621,526.697876 263.576752,526.911194 263.697937,526.926514 
	C292.302460,530.550293 320.520752,535.973816 348.028564,544.796753 
	C349.300232,545.204712 351.008667,544.893066 352.327881,544.409546 
	C363.380371,540.359070 374.389343,536.189880 385.741089,531.932800 
	C385.741089,481.789825 385.741089,431.064178 385.741089,379.417236 
	C373.353912,390.514435 361.547913,401.091003 349.555939,411.834167 
	C346.415802,408.348511 343.560699,405.179230 340.541931,401.828308 
	C381.246307,365.252594 421.579681,329.010254 462.133087,292.570190 
	C502.782074,329.102325 543.103394,365.339996 583.679871,401.807007 
	C580.517761,405.365265 577.682739,408.555359 574.738342,411.868622 
	C562.683350,401.083832 550.992554,390.624939 538.676819,379.606903 
	C538.436279,381.681396 538.230774,382.627747 538.230469,383.574188 
	C538.213928,432.068726 538.248230,480.563354 538.134460,529.057617 
	C538.127319,532.092834 539.384827,533.062866 541.919495,533.775696 
	C567.841003,541.065308 592.164856,552.019592 615.336792,565.676941 
	C617.252625,566.806152 620.067505,567.117554 622.337891,566.825012 
	C639.486694,564.614990 656.586121,562.015686 673.744202,559.886597 
	C677.720520,559.393188 679.694763,558.102722 681.112488,554.170227 
	C695.952942,513.005554 700.881958,470.768921 695.117615,427.382507 
	C686.686157,363.921906 659.368347,309.717804 612.090088,266.749603 
	C543.420349,204.340042 462.559357,182.184860 371.983459,202.281052 
	C290.286865,220.407166 230.497604,268.880981 192.393707,343.171387 
	C167.065201,392.553925 159.620209,445.384003 167.180191,500.302246 
	C168.325470,508.621887 170.240768,516.835510 171.696060,524.548035 
	C196.003235,524.548035 219.360870,524.548035 242.293655,524.548035 
	C242.293655,512.419189 242.293655,500.368500 242.293655,489.864410 
	C237.322464,487.554138 233.509171,485.782013 229.461761,483.901062 
	C229.671783,483.634247 229.333267,483.990143 229.079193,484.398560 
	C226.512970,488.523438 223.093826,490.991486 217.954315,490.361023 
	C212.871567,489.737579 210.513412,486.508453 209.488358,481.856812 
	C209.321442,481.099396 208.971008,480.075256 208.389862,479.764496 
	C203.372513,477.081512 201.627731,472.726379 202.013550,467.276123 
	C191.461731,469.755829 185.571198,467.557526 181.957275,459.960297 
	C176.247879,447.957947 181.122589,433.957611 192.973328,428.520508 
	C191.979126,426.607239 190.888336,424.741272 190.010437,422.779999 
	C185.150757,411.923065 184.207611,401.033875 189.820633,390.094177 
	C192.706528,384.469604 196.898285,381.375793 203.975266,382.876099 
M184.629486,542.831848 
	C182.134171,542.264099 179.638840,541.696350 176.810394,541.052795 
	C208.905899,649.970764 313.767090,725.651917 420.250244,727.656555 
	C414.989777,715.069519 410.679016,702.657410 404.789429,691.046082 
	C385.115936,652.259644 355.655670,622.179993 319.764679,598.171204 
	C278.732178,570.723022 233.266144,553.949646 184.629486,542.831848 
M664.615479,590.047424 
	C668.950256,581.243225 673.284973,572.439026 677.868347,563.129883 
	C675.082520,563.129883 673.584045,563.012817 672.108582,563.147156 
	C640.544983,566.020569 609.511108,571.548035 579.524170,582.082703 
	C538.412659,596.525391 502.402344,618.598511 474.615326,652.816956 
	C460.225769,670.537170 449.461975,690.262146 442.462830,711.989441 
	C440.817169,717.098083 439.750153,722.393127 438.083466,728.905273 
	C538.398254,721.722900 613.938110,676.922913 664.615479,590.047424 
M534.979858,406.500000 
	C534.979858,397.667450 535.160400,388.828552 534.850342,380.006897 
	C534.774719,377.855469 533.601868,375.230255 532.053467,373.732910 
	C525.833801,367.718231 519.271606,362.057587 512.830566,356.272095 
	C496.007385,341.161133 479.181335,326.053375 462.256256,310.854462 
	C461.532990,311.389954 460.978790,311.734375 460.500763,312.163635 
	C437.704742,332.634369 414.862854,353.054993 392.227478,373.701965 
	C390.471039,375.304138 389.323242,378.497009 389.314728,380.955505 
	C389.146851,429.283020 389.189880,477.611298 389.189880,525.939392 
	C389.189880,527.592590 389.189880,529.245789 389.189880,531.443665 
	C398.756256,529.472290 407.915894,527.584717 417.287048,525.653503 
	C417.287048,498.931915 417.287048,472.650604 417.287048,446.114746 
	C447.298553,446.114746 476.997711,446.114746 507.062073,446.114746 
	C507.062073,472.859009 507.062073,499.301605 507.062073,525.736206 
	C516.476318,527.625610 525.536316,529.443909 534.979858,531.339233 
	C534.979858,489.792786 534.979858,448.646393 534.979858,406.500000 
M420.144287,529.756409 
	C416.884552,530.398621 413.617889,531.007812 410.366486,531.689697 
	C402.404205,533.359680 394.506897,535.447510 386.476593,536.658447 
	C375.808533,538.267212 366.220612,542.625122 354.918884,546.951843 
	C407.306885,565.286255 453.585510,590.877747 492.350983,628.873901 
	C526.986511,597.412476 568.095703,579.597961 613.680664,568.683350 
	C609.256775,566.178772 605.949036,564.289917 602.626526,562.427612 
	C570.526001,544.434875 536.007629,533.516541 499.723877,528.406494 
	C479.942017,525.620483 459.932678,525.423706 439.976807,527.208618 
	C433.570984,527.781616 427.185333,528.579773 420.144287,529.756409 
M448.982758,597.467224 
	C408.611877,569.791382 364.375153,550.978455 316.811005,539.776794 
	C273.840088,529.656738 185.476929,523.399353 172.832153,529.953979 
	C174.936905,530.319763 176.515854,530.701416 178.116776,530.856567 
	C211.031311,534.047058 243.196609,540.746948 274.263794,552.138672 
	C338.921814,575.847412 391.449493,615.023621 428.086853,674.082642 
	C433.407837,682.659973 437.851532,691.781616 442.752350,700.744995 
	C453.194641,674.265137 469.007538,651.313416 489.668335,631.387573 
	C477.242401,618.601990 463.803284,607.773132 448.982758,597.467224 
M422.730377,722.855835 
	C423.664276,724.607117 424.213257,727.427979 425.598114,727.926392 
	C431.923248,730.202881 434.679047,728.384338 436.208923,721.852661 
	C436.815430,719.263245 437.178680,716.535400 438.278656,714.160522 
	C440.376862,709.630493 439.386810,705.729736 437.386292,701.424622 
	C414.063049,651.234009 377.482819,613.063293 330.776947,584.273560 
	C290.274567,559.307617 245.844879,545.147400 199.012192,538.055725 
	C192.222809,537.027649 185.384232,536.324280 178.568405,535.470642 
	C189.670090,539.236328 200.963211,541.855347 212.100952,545.020996 
	C267.366486,560.729370 318.280151,584.685425 360.441254,624.722229 
	C389.155548,651.989868 410.813080,683.878113 422.730377,722.855835 
M465.022430,468.508301 
	C465.022430,486.406189 465.022430,504.304047 465.022430,522.176453 
	C476.007721,522.868713 486.344452,523.520081 496.747681,524.175720 
	C496.747681,501.160187 496.747681,478.594849 496.747681,455.854218 
	C486.150024,455.854218 475.783661,455.854218 465.022430,455.854218 
	C465.022430,459.917877 465.022430,463.715454 465.022430,468.508301 
M460.422333,513.490601 
	C460.422333,494.279419 460.422333,475.068237 460.422333,455.947113 
	C449.379608,455.947113 439.158600,455.947113 428.930420,455.947113 
	C428.930420,478.840759 428.930420,501.363251 428.930420,524.062317 
	C439.506195,523.412903 449.717468,522.785828 460.422546,522.128418 
	C460.422546,519.388184 460.422546,516.937744 460.422333,513.490601 
M457.500000,448.990082 
	C445.258423,448.990082 433.016876,448.990082 420.767090,448.990082 
	C420.767090,474.735565 420.767090,499.793304 420.767090,525.241028 
	C422.692596,525.020935 424.256348,524.842224 426.288086,524.610046 
	C426.288086,500.720703 426.288086,477.158936 426.288086,453.548767 
	C450.832489,453.548767 474.862122,453.548767 499.149292,453.548767 
	C499.149292,455.744141 499.149292,457.566895 499.149292,459.389648 
	C499.149323,479.874603 499.200195,500.359833 499.098419,520.844299 
	C499.081818,524.188599 499.765259,525.970032 503.593872,524.760315 
	C503.593872,499.588898 503.593872,474.516266 503.593872,448.990082 
	C488.394409,448.990082 473.447205,448.990082 457.500000,448.990082 
M266.933411,447.326630 
	C266.145172,446.788696 265.356934,446.250763 264.830322,445.891388 
	C264.672943,449.291199 264.544922,452.056061 264.416901,454.820923 
	C264.556152,454.863129 264.695404,454.905304 264.834656,454.947510 
	C265.499084,452.688110 266.163513,450.428680 266.933411,447.326630 
M263.039307,456.498749 
	C263.223145,456.629517 263.406982,456.760254 263.590851,456.890991 
	C263.561096,456.597961 263.531342,456.304932 263.039307,456.498749 
z"/>
<path fill="#FFFEFE" opacity="1.000000" stroke="none" 
	d="
M203.508102,382.700775 
	C196.898285,381.375793 192.706528,384.469604 189.820633,390.094177 
	C184.207611,401.033875 185.150757,411.923065 190.010437,422.779999 
	C190.888336,424.741272 191.979126,426.607239 192.973328,428.520508 
	C181.122589,433.957611 176.247879,447.957947 181.957275,459.960297 
	C185.571198,467.557526 191.461731,469.755829 202.013550,467.276123 
	C201.627731,472.726379 203.372513,477.081512 208.389862,479.764496 
	C208.971008,480.075256 209.321442,481.099396 209.488358,481.856812 
	C210.513412,486.508453 212.871567,489.737579 217.954315,490.361023 
	C223.093826,490.991486 226.512970,488.523438 229.079193,484.398560 
	C229.333267,483.990143 229.671783,483.634247 229.461761,483.901062 
	C233.509171,485.782013 237.322464,487.554138 242.293655,489.864410 
	C242.293655,500.368500 242.293655,512.419189 242.293655,524.548035 
	C219.360870,524.548035 196.003235,524.548035 171.696060,524.548035 
	C170.240768,516.835510 168.325470,508.621887 167.180191,500.302246 
	C159.620209,445.384003 167.065201,392.553925 192.393707,343.171387 
	C230.497604,268.880981 290.286865,220.407166 371.983459,202.281052 
	C462.559357,182.184860 543.420349,204.340042 612.090088,266.749603 
	C659.368347,309.717804 686.686157,363.921906 695.117615,427.382507 
	C700.881958,470.768921 695.952942,513.005554 681.112488,554.170227 
	C679.694763,558.102722 677.720520,559.393188 673.744202,559.886597 
	C656.586121,562.015686 639.486694,564.614990 622.337891,566.825012 
	C620.067505,567.117554 617.252625,566.806152 615.336792,565.676941 
	C592.164856,552.019592 567.841003,541.065308 541.919495,533.775696 
	C539.384827,533.062866 538.127319,532.092834 538.134460,529.057617 
	C538.248230,480.563354 538.213928,432.068726 538.230469,383.574188 
	C538.230774,382.627747 538.436279,381.681396 538.676819,379.606903 
	C550.992554,390.624939 562.683350,401.083832 574.738342,411.868622 
	C577.682739,408.555359 580.517761,405.365265 583.679871,401.807007 
	C543.103394,365.339996 502.782074,329.102325 462.133087,292.570190 
	C421.579681,329.010254 381.246307,365.252594 340.541931,401.828308 
	C343.560699,405.179230 346.415802,408.348511 349.555939,411.834167 
	C361.547913,401.091003 373.353912,390.514435 385.741089,379.417236 
	C385.741089,431.064178 385.741089,481.789825 385.741089,531.932800 
	C374.389343,536.189880 363.380371,540.359070 352.327881,544.409546 
	C351.008667,544.893066 349.300232,545.204712 348.028564,544.796753 
	C320.520752,535.973816 292.302460,530.550293 263.697937,526.926514 
	C263.576752,526.911194 263.480621,526.697876 264.198364,527.502258 
	C264.198364,513.460876 263.976501,500.343933 264.414795,487.249023 
	C264.488617,485.043945 267.413788,482.934326 268.888824,480.958282 
	C279.185425,483.890686 280.392639,483.349426 285.980133,474.789581 
	C286.643311,473.773651 288.609528,473.031525 289.915375,473.109283 
	C296.434143,473.497162 300.625305,470.271149 303.623779,464.932343 
	C307.466980,458.089569 308.461243,450.762268 306.510651,443.241058 
	C305.726990,440.219391 306.147217,438.509277 308.601318,436.489899 
	C319.658112,427.391754 321.846008,414.896301 320.399384,401.690338 
	C319.447327,392.998962 311.727356,388.068115 303.536682,389.683777 
	C302.940826,384.822510 302.688416,379.893341 301.679047,375.124359 
	C299.564545,365.133972 294.992950,362.008026 284.837891,362.894012 
	C284.160461,362.953125 283.418060,362.561890 282.741882,362.290375 
	C280.062012,361.214294 277.396454,360.102539 274.439087,359.622742 
	C267.461578,350.806915 262.563110,349.326874 255.666702,354.766571 
	C243.771484,347.322449 236.289001,349.919922 230.854919,361.953461 
	C226.244125,363.894592 222.887085,365.307922 218.886108,366.992310 
	C213.724991,364.017334 208.965042,365.598480 206.239395,372.527618 
	C205.233444,375.084900 205.217896,378.031799 204.375153,381.436768 
	C203.835815,382.281952 203.671967,382.491364 203.508102,382.700775 
z"/>
<path fill="#FFFEFE" opacity="1.000000" stroke="none" 
	d="
M185.034088,542.905884 
	C233.266144,553.949646 278.732178,570.723022 319.764679,598.171204 
	C355.655670,622.179993 385.115936,652.259644 404.789429,691.046082 
	C410.679016,702.657410 414.989777,715.069519 420.250244,727.656555 
	C313.767090,725.651917 208.905899,649.970764 176.810394,541.052795 
	C179.638840,541.696350 182.134171,542.264099 185.034088,542.905884 
z"/>
<path fill="#FFFEFE" opacity="1.000000" stroke="none" 
	d="
M664.410645,590.356812 
	C613.938110,676.922913 538.398254,721.722900 438.083466,728.905273 
	C439.750153,722.393127 440.817169,717.098083 442.462830,711.989441 
	C449.461975,690.262146 460.225769,670.537170 474.615326,652.816956 
	C502.402344,618.598511 538.412659,596.525391 579.524170,582.082703 
	C609.511108,571.548035 640.544983,566.020569 672.108582,563.147156 
	C673.584045,563.012817 675.082520,563.129883 677.868347,563.129883 
	C673.284973,572.439026 668.950256,581.243225 664.410645,590.356812 
z"/>
<path fill="#FFFEFE" opacity="1.000000" stroke="none" 
	d="
M534.979858,407.000000 
	C534.979858,448.646393 534.979858,489.792786 534.979858,531.339233 
	C525.536316,529.443909 516.476318,527.625610 507.062073,525.736206 
	C507.062073,499.301605 507.062073,472.859009 507.062073,446.114746 
	C476.997711,446.114746 447.298553,446.114746 417.287048,446.114746 
	C417.287048,472.650604 417.287048,498.931915 417.287048,525.653503 
	C407.915894,527.584717 398.756256,529.472290 389.189880,531.443665 
	C389.189880,529.245789 389.189880,527.592590 389.189880,525.939392 
	C389.189880,477.611298 389.146851,429.283020 389.314728,380.955505 
	C389.323242,378.497009 390.471039,375.304138 392.227478,373.701965 
	C414.862854,353.054993 437.704742,332.634369 460.500763,312.163635 
	C460.978790,311.734375 461.532990,311.389954 462.256256,310.854462 
	C479.181335,326.053375 496.007385,341.161133 512.830566,356.272095 
	C519.271606,362.057587 525.833801,367.718231 532.053467,373.732910 
	C533.601868,375.230255 534.774719,377.855469 534.850342,380.006897 
	C535.160400,388.828552 534.979858,397.667450 534.979858,407.000000 
M447.736633,403.838226 
	C449.038147,404.564850 450.295349,405.389221 451.648254,406.002502 
	C461.717743,410.567535 473.807556,407.975159 481.235809,399.701355 
	C488.458221,391.656891 489.705627,379.507629 484.284027,370.014648 
	C478.818848,360.445404 467.964752,355.508362 457.175171,357.753296 
	C446.727417,359.927094 439.870270,366.320129 437.446167,376.538879 
	C434.892578,387.303589 438.118225,396.545990 447.736633,403.838226 
z"/>
<path fill="#FFFEFE" opacity="1.000000" stroke="none" 
	d="
M420.467346,529.515625 
	C427.185333,528.579773 433.570984,527.781616 439.976807,527.208618 
	C459.932678,525.423706 479.942017,525.620483 499.723877,528.406494 
	C536.007629,533.516541 570.526001,544.434875 602.626526,562.427612 
	C605.949036,564.289917 609.256775,566.178772 613.680664,568.683350 
	C568.095703,579.597961 526.986511,597.412476 492.350983,628.873901 
	C453.585510,590.877747 407.306885,565.286255 354.918884,546.951843 
	C366.220612,542.625122 375.808533,538.267212 386.476593,536.658447 
	C394.506897,535.447510 402.404205,533.359680 410.366486,531.689697 
	C413.617889,531.007812 416.884552,530.398621 420.467346,529.515625 
z"/>
<path fill="#FFFDFD" opacity="1.000000" stroke="none" 
	d="
M449.265381,597.690308 
	C463.803284,607.773132 477.242401,618.601990 489.668335,631.387573 
	C469.007538,651.313416 453.194641,674.265137 442.752350,700.744995 
	C437.851532,691.781616 433.407837,682.659973 428.086853,674.082642 
	C391.449493,615.023621 338.921814,575.847412 274.263794,552.138672 
	C243.196609,540.746948 211.031311,534.047058 178.116776,530.856567 
	C176.515854,530.701416 174.936905,530.319763 172.832153,529.953979 
	C185.476929,523.399353 273.840088,529.656738 316.811005,539.776794 
	C364.375153,550.978455 408.611877,569.791382 449.265381,597.690308 
z"/>
<path fill="#FFFDFD" opacity="1.000000" stroke="none" 
	d="
M283.437592,449.502869 
	C283.793640,443.592865 284.433014,437.677094 284.313049,431.776764 
	C284.281769,430.238678 281.884094,428.748688 280.573273,427.236603 
	C279.716736,428.964203 278.158203,430.677399 278.122406,432.421844 
	C277.945679,441.035431 275.615509,448.675415 268.699402,456.192871 
	C269.420227,451.366516 270.273071,447.927704 270.370667,444.467590 
	C270.515350,439.337128 270.265991,434.180115 269.851349,429.061340 
	C269.760498,427.939362 268.269775,426.930725 267.423737,425.869904 
	C266.350830,426.950714 264.486786,427.942230 264.352814,429.128998 
	C263.945099,432.741364 264.204987,436.429108 264.204987,440.087494 
	C263.652740,440.166138 263.100494,440.244781 262.548248,440.323425 
	C262.094330,437.484833 261.850647,434.589752 261.109009,431.828430 
	C260.652008,430.126923 259.435272,428.629486 258.559662,427.040405 
	C257.180023,428.458069 254.905975,429.697937 254.582443,431.325562 
	C253.450226,437.021545 255.463684,442.153809 259.025665,446.600769 
	C262.025604,450.345978 261.591156,454.527313 257.612091,457.731720 
	C254.041794,460.606934 248.475311,459.920563 246.598862,455.440094 
	C244.395218,450.178345 243.290131,444.406708 242.157776,438.766022 
	C241.543732,435.707275 242.129562,432.418457 241.633423,429.320038 
	C241.430298,428.051422 239.799088,427.011505 238.817520,425.867584 
	C237.875366,426.999634 236.130386,428.125305 236.121338,429.264801 
	C236.062363,436.695160 236.364853,444.128998 236.590851,451.560394 
	C236.623535,452.635223 236.880005,453.703247 237.196793,455.922302 
	C231.190933,449.982269 228.863846,443.612640 228.060745,436.549500 
	C227.854462,434.735413 228.148804,432.843323 227.784592,431.075348 
	C227.518204,429.782166 226.550171,428.633514 225.894882,427.420441 
	C224.637146,428.250885 222.391159,428.972870 222.286163,429.929779 
	C221.714127,435.143860 221.591064,440.414307 221.495316,445.668701 
	C221.469788,447.068909 222.083389,448.480713 222.403580,449.887207 
	C221.927261,450.187347 221.450928,450.487488 220.974609,450.787659 
	C218.291519,447.110321 215.608414,443.432983 212.717758,439.471191 
	C210.246704,440.767487 210.092316,443.387787 210.985535,446.243713 
	C212.968384,452.583740 217.434357,456.443573 223.470840,458.924988 
	C227.028076,460.387238 230.187439,462.929382 233.812241,464.094727 
	C245.581100,467.878418 240.459595,477.060577 241.290680,484.516266 
	C235.256454,484.812988 234.282410,483.886169 231.652634,474.917358 
	C229.925034,476.809753 228.540039,478.063873 227.484558,479.551727 
	C226.254059,481.286407 225.640854,483.555115 224.181229,485.012695 
	C220.130966,489.057251 214.643661,487.274872 212.882614,481.871063 
	C212.194748,479.760284 210.782120,477.490906 209.030807,476.203796 
	C205.395264,473.531921 205.233109,470.324402 206.160934,466.483765 
	C206.474945,465.183929 206.283356,463.761963 206.322830,462.395813 
	C204.932358,462.546570 203.368195,462.335022 202.178848,462.905243 
	C192.508438,467.541473 184.985764,464.272003 183.681747,453.644257 
	C183.029282,448.326630 184.704697,442.563477 186.119217,437.211151 
	C186.989716,433.917358 190.111206,432.599091 193.754013,433.053375 
	C195.082108,433.218994 196.490417,432.741241 197.862137,432.557037 
	C197.559280,431.057831 197.671783,429.282104 196.887177,428.103638 
	C191.145905,419.480591 187.910049,410.204254 190.073822,399.836609 
	C190.865479,396.043335 192.649673,392.281677 194.731995,388.979034 
	C197.164780,385.120514 200.705490,384.943237 204.647568,387.389496 
	C205.987869,388.221191 207.632767,388.562042 209.723312,389.346710 
	C209.025833,385.374908 207.839218,382.421753 208.201340,379.672577 
	C208.611435,376.558990 210.017868,373.378052 211.728210,370.696564 
	C213.121094,368.512756 215.507248,368.013245 217.358490,370.866394 
	C219.607315,374.332245 221.383453,373.483734 223.063095,370.256073 
	C223.782227,368.874115 224.981522,367.742035 225.988373,366.463776 
	C231.273102,371.599823 231.578735,371.525024 233.456558,365.106079 
	C236.859039,353.475525 244.739594,351.153564 254.175323,358.836578 
	C254.877319,359.408203 257.289062,359.117676 257.871521,358.394623 
	C261.285065,354.157349 264.929718,353.893036 268.318054,358.158142 
	C269.428864,359.556396 270.217316,361.274261 270.866974,362.956482 
	C271.451904,364.471191 271.645081,366.137238 272.233856,368.710266 
	C273.558014,367.051697 274.382263,366.027130 275.198059,364.995880 
	C277.247498,362.405212 279.068268,361.609558 280.271393,365.640198 
	C281.074493,368.330719 282.508453,368.289246 284.781311,367.095245 
	C290.069702,364.317169 294.899658,365.688538 296.731567,371.508881 
	C298.541107,377.258148 298.805389,383.501129 299.660187,389.539886 
	C299.991821,391.882568 300.084076,394.259155 300.216827,395.816559 
	C303.734680,394.644836 307.525360,392.087646 309.243805,393.088470 
	C312.483826,394.975494 316.271423,398.659424 316.761902,402.041565 
	C318.581055,414.585388 316.287720,426.378326 305.448456,434.714722 
	C302.456909,437.015503 301.636108,439.133331 302.879242,442.741760 
	C305.086029,449.147430 304.389008,455.543488 301.491486,461.665009 
	C298.411194,468.172607 295.521912,469.588196 288.187195,469.541992 
	C286.453186,469.531097 284.004913,471.300262 283.086731,472.928223 
	C279.333496,479.583038 278.477448,479.931274 271.386993,477.724945 
	C269.642517,477.182098 267.363495,478.357056 264.711548,478.859497 
	C264.711548,476.239655 264.684753,472.874847 264.735687,469.511230 
	C264.745117,468.889069 264.874176,467.935364 265.276276,467.703247 
	C270.206543,464.856995 274.945557,461.392914 280.242218,459.546051 
	C285.902649,457.572327 290.430939,454.796143 293.484039,449.714478 
	C295.691162,446.040985 296.283417,442.274963 293.743835,438.830475 
	C290.806824,442.528564 287.818665,446.291016 284.316772,449.934082 
	C283.803070,449.814667 283.437592,449.502869 283.437592,449.502869 
z"/>
<path fill="#FFFBFB" opacity="1.000000" stroke="none" 
	d="
M422.566284,722.481079 
	C410.813080,683.878113 389.155548,651.989868 360.441254,624.722229 
	C318.280151,584.685425 267.366486,560.729370 212.100952,545.020996 
	C200.963211,541.855347 189.670090,539.236328 178.568405,535.470642 
	C185.384232,536.324280 192.222809,537.027649 199.012192,538.055725 
	C245.844879,545.147400 290.274567,559.307617 330.776947,584.273560 
	C377.482819,613.063293 414.063049,651.234009 437.386292,701.424622 
	C439.386810,705.729736 440.376862,709.630493 438.278656,714.160522 
	C437.178680,716.535400 436.815430,719.263245 436.208923,721.852661 
	C434.679047,728.384338 431.923248,730.202881 425.598114,727.926392 
	C424.213257,727.427979 423.664276,724.607117 422.566284,722.481079 
z"/>
<path fill="#FFFFFF" opacity="1.000000" stroke="none" 
	d="
M465.022430,468.010651 
	C465.022430,463.715454 465.022430,459.917877 465.022430,455.854218 
	C475.783661,455.854218 486.150024,455.854218 496.747681,455.854218 
	C496.747681,478.594849 496.747681,501.160187 496.747681,524.175720 
	C486.344452,523.520081 476.007721,522.868713 465.022430,522.176453 
	C465.022430,504.304047 465.022430,486.406189 465.022430,468.010651 
z"/>
<path fill="#FFFFFF" opacity="1.000000" stroke="none" 
	d="
M460.422424,513.988953 
	C460.422546,516.937744 460.422546,519.388184 460.422546,522.128418 
	C449.717468,522.785828 439.506195,523.412903 428.930420,524.062317 
	C428.930420,501.363251 428.930420,478.840759 428.930420,455.947113 
	C439.158600,455.947113 449.379608,455.947113 460.422333,455.947113 
	C460.422333,475.068237 460.422333,494.279419 460.422424,513.988953 
z"/>
<path fill="#FFEFEF" opacity="1.000000" stroke="none" 
	d="
M458.000000,448.990082 
	C473.447205,448.990082 488.394409,448.990082 503.593872,448.990082 
	C503.593872,474.516266 503.593872,499.588898 503.593872,524.760315 
	C499.765259,525.970032 499.081818,524.188599 499.098419,520.844299 
	C499.200195,500.359833 499.149323,479.874603 499.149292,459.389648 
	C499.149292,457.566895 499.149292,455.744141 499.149292,453.548767 
	C474.862122,453.548767 450.832489,453.548767 426.288086,453.548767 
	C426.288086,477.158936 426.288086,500.720703 426.288086,524.610046 
	C424.256348,524.842224 422.692596,525.020935 420.767090,525.241028 
	C420.767090,499.793304 420.767090,474.735565 420.767090,448.990082 
	C433.016876,448.990082 445.258423,448.990082 458.000000,448.990082 
z"/>
<path fill="#FFFBFB" opacity="1.000000" stroke="none" 
	d="
M235.482193,459.174988 
	C238.257294,460.564056 241.032379,461.953125 244.729492,463.803741 
	C244.117462,461.677856 243.774597,460.486938 243.187576,458.447906 
	C249.570923,463.230652 255.638214,465.017303 261.702972,458.937714 
	C262.001129,459.483673 262.038116,459.800934 262.075073,460.118195 
	C261.816589,460.996216 261.558075,461.874237 261.299591,462.752289 
	C261.612335,463.135406 261.925049,463.518524 262.237793,463.901672 
	C266.115021,461.145020 269.992249,458.388367 274.444977,455.789978 
	C275.250610,456.183807 275.480713,456.419342 275.710785,456.654877 
	C271.159302,459.821198 266.607788,462.987518 260.982544,466.900787 
	C260.982544,475.618011 260.982574,485.899200 260.982574,496.180389 
	C260.982574,506.276581 260.982544,516.372742 260.982544,526.735291 
	C255.092651,526.198242 250.672836,525.795227 245.013855,525.279236 
	C245.013855,507.167542 244.852524,489.401306 245.123993,471.641693 
	C245.194427,467.034393 244.402664,464.083191 239.379196,463.238922 
	C237.863083,462.984100 236.524338,461.673828 235.135712,460.284607 
	C235.272110,459.539764 235.377151,459.357391 235.482193,459.174988 
z"/>
<path fill="#FFCDCD" opacity="1.000000" stroke="none" 
	d="
M275.185608,454.050476 
	C277.541443,447.980072 279.897278,441.909668 281.934753,436.659607 
	C282.721619,442.151886 281.190704,448.135345 276.727692,453.835449 
	C275.871735,454.093475 275.528656,454.071960 275.185608,454.050476 
z"/>
<path fill="#FFFBFB" opacity="1.000000" stroke="none" 
	d="
M228.594711,450.480957 
	C230.482742,452.970490 232.370758,455.459991 234.215271,458.409851 
	C234.012238,459.012054 233.852722,459.153961 233.693207,459.295898 
	C230.856155,457.890594 228.019119,456.485291 225.764328,455.368378 
	C226.204544,454.685211 227.036392,453.394196 227.991180,451.509705 
	C228.274323,450.771118 228.434509,450.626038 228.594711,450.480957 
z"/>
<path fill="#FFCDCD" opacity="1.000000" stroke="none" 
	d="
M266.880676,447.747925 
	C266.163513,450.428680 265.499084,452.688110 264.834656,454.947510 
	C264.695404,454.905304 264.556152,454.863129 264.416901,454.820923 
	C264.544922,452.056061 264.672943,449.291199 264.830322,445.891388 
	C265.356934,446.250763 266.145172,446.788696 266.880676,447.747925 
z"/>
<path fill="#FFFBFB" opacity="1.000000" stroke="none" 
	d="
M227.874023,451.134033 
	C226.579529,449.131378 225.525101,446.910889 224.470673,444.690399 
	C224.935608,444.480560 225.400543,444.270752 225.865479,444.060913 
	C226.683289,445.980957 227.501114,447.900970 228.456818,450.151001 
	C228.434509,450.626038 228.274323,450.771118 227.874023,451.134033 
z"/>
<path fill="#FFFBFB" opacity="1.000000" stroke="none" 
	d="
M275.028015,454.222290 
	C275.528656,454.071960 275.871735,454.093475 276.471619,454.091705 
	C276.586884,454.859314 276.445312,455.650238 276.007263,456.548004 
	C275.480713,456.419342 275.250610,456.183807 274.704346,455.568451 
	C274.508240,454.899109 274.668976,454.634247 275.028015,454.222290 
z"/>
<path fill="#FFCDCD" opacity="1.000000" stroke="none" 
	d="
M262.322327,459.937805 
	C262.038116,459.800934 262.001129,459.483673 261.987610,458.685150 
	C262.355774,458.165985 262.700409,458.128082 263.045044,458.090149 
	C262.886536,458.645905 262.728027,459.201660 262.322327,459.937805 
z"/>
<path fill="#FFFEFE" opacity="1.000000" stroke="none" 
	d="
M204.282181,381.791016 
	C204.368225,381.965027 204.171753,382.420563 203.741684,382.788452 
	C203.671967,382.491364 203.835815,382.281952 204.282181,381.791016 
z"/>
<path fill="#FFFDFD" opacity="1.000000" stroke="none" 
	d="
M283.974091,449.983337 
	C283.869904,450.316772 283.594696,450.481537 283.319489,450.646301 
	C283.269287,450.407593 283.219086,450.168915 283.303223,449.716553 
	C283.437592,449.502869 283.803070,449.814667 283.974091,449.983337 
z"/>
<path fill="#FFFBFB" opacity="1.000000" stroke="none" 
	d="
M234.973755,459.971741 
	C234.486298,460.067749 234.192123,459.914154 233.795593,459.528229 
	C233.852722,459.153961 234.012238,459.012054 234.424194,458.672394 
	C234.900696,458.572571 235.095078,458.711945 235.370972,459.033875 
	C235.377151,459.357391 235.272110,459.539764 234.973755,459.971741 
z"/>
<path fill="#FFCDCD" opacity="1.000000" stroke="none" 
	d="
M263.270447,456.255310 
	C263.531342,456.304932 263.561096,456.597961 263.590851,456.890991 
	C263.406982,456.760254 263.223145,456.629517 263.270447,456.255310 
z"/>
<path fill="#FF2D2D" opacity="1.000000" stroke="none" 
	d="
M447.446869,403.621338 
	C438.118225,396.545990 434.892578,387.303589 437.446167,376.538879 
	C439.870270,366.320129 446.727417,359.927094 457.175171,357.753296 
	C467.964752,355.508362 478.818848,360.445404 484.284027,370.014648 
	C489.705627,379.507629 488.458221,391.656891 481.235809,399.701355 
	C473.807556,407.975159 461.717743,410.567535 451.648254,406.002502 
	C450.295349,405.389221 449.038147,404.564850 447.446869,403.621338 
M455.177734,361.178650 
	C442.483521,366.718292 436.729614,377.964233 440.638184,389.596069 
	C444.614258,401.428802 456.815460,407.897644 468.446259,404.339478 
	C480.547852,400.637238 487.236237,388.540131 483.873871,376.436127 
	C480.611694,364.692841 468.535156,358.015076 455.177734,361.178650 
z"/>
<path fill="#FFFDFD" opacity="1.000000" stroke="none" 
	d="
M455.573181,361.092224 
	C468.535156,358.015076 480.611694,364.692841 483.873871,376.436127 
	C487.236237,388.540131 480.547852,400.637238 468.446259,404.339478 
	C456.815460,407.897644 444.614258,401.428802 440.638184,389.596069 
	C436.729614,377.964233 442.483521,366.718292 455.573181,361.092224 
z"/>
</svg>